<svg width="144" height="38" viewBox="0 0 144 38" fill="none" xmlns="http://www.w3.org/2000/svg">
<path d="M142 10C143.105 10 144 10.8954 144 12V36C144 37.1046 143.105 38 142 38H74C72.8954 38 72 37.1046 72 36V12C72 10.8954 72.8954 10 74 10H142ZM89.9258 21.6035L89.126 26.3818C89.0895 26.7555 89.0986 27.1064 89.1533 27.4346C89.2126 27.7627 89.3242 28.0544 89.4883 28.3096C89.6523 28.5602 89.8734 28.7607 90.1514 28.9111C90.4294 29.057 90.7712 29.1344 91.1768 29.1436C91.6735 29.1527 92.1042 29.0615 92.4688 28.8701C92.714 28.7413 92.9314 28.5795 93.123 28.3867L93.0566 29H94.8613L96.1465 21.6035H94.2188L93.3164 26.8076C93.1834 27.0313 93.0144 27.2164 92.8037 27.3594C92.5485 27.528 92.2272 27.6055 91.8398 27.5918C91.6576 27.5872 91.5117 27.5531 91.4023 27.4893C91.293 27.4209 91.2087 27.332 91.1494 27.2227C91.0902 27.1133 91.0537 26.9902 91.04 26.8535C91.0264 26.7122 91.0264 26.5641 91.04 26.4092L91.8467 21.6035H89.9258ZM100.146 21.4668C99.7946 21.4577 99.4414 21.501 99.0859 21.5967C98.7305 21.6924 98.4023 21.8382 98.1016 22.0342C97.8008 22.2256 97.5547 22.4694 97.3633 22.7656C97.1764 23.0573 97.0762 23.4014 97.0625 23.7979C97.0488 24.1305 97.1081 24.4199 97.2402 24.666C97.3724 24.9076 97.5501 25.1126 97.7734 25.2812C97.9967 25.4499 98.2451 25.5911 98.5186 25.7051C98.7965 25.8145 99.0723 25.9056 99.3457 25.9785C99.5007 26.015 99.6829 26.0651 99.8926 26.1289C100.107 26.1927 100.287 26.2861 100.433 26.4092C100.578 26.5277 100.633 26.6963 100.597 26.915C100.56 27.1201 100.474 27.2865 100.337 27.4141C100.2 27.5371 100.038 27.626 99.8516 27.6807C99.6693 27.7354 99.4847 27.7604 99.2979 27.7559C99.0609 27.7559 98.8558 27.7148 98.6826 27.6328C98.514 27.5462 98.3841 27.4209 98.293 27.2568C98.2018 27.0928 98.154 26.8923 98.1494 26.6553L96.3447 26.6484C96.3493 27.1816 96.486 27.6328 96.7549 28.002C97.0238 28.3665 97.3747 28.6445 97.8076 28.8359C98.2451 29.0273 98.7122 29.1276 99.209 29.1367C99.5645 29.1413 99.9268 29.1003 100.296 29.0137C100.67 28.9316 101.016 28.7995 101.335 28.6172C101.659 28.4303 101.923 28.1911 102.128 27.8994C102.333 27.6032 102.442 27.2477 102.456 26.833C102.474 26.3454 102.363 25.9557 102.121 25.6641C101.88 25.3678 101.567 25.1377 101.185 24.9736C100.802 24.8096 100.41 24.6751 100.009 24.5703C99.8994 24.5475 99.7764 24.5179 99.6396 24.4814C99.5029 24.4404 99.373 24.3903 99.25 24.3311C99.127 24.2673 99.029 24.1852 98.9561 24.085C98.8831 23.9847 98.8604 23.8571 98.8877 23.7021C98.9196 23.5153 98.9971 23.3581 99.1201 23.2305C99.2432 23.1029 99.389 23.0072 99.5576 22.9434C99.7308 22.875 99.904 22.8408 100.077 22.8408C100.296 22.8408 100.476 22.8818 100.617 22.9639C100.758 23.0459 100.863 23.1621 100.932 23.3125C101 23.4629 101.032 23.6383 101.027 23.8389L102.935 23.8457C102.935 23.3216 102.802 22.8841 102.538 22.5332C102.278 22.1823 101.937 21.918 101.513 21.7402C101.093 21.5625 100.638 21.4714 100.146 21.4668ZM118.719 21.4668C118.167 21.4531 117.666 21.5488 117.215 21.7539C116.768 21.9544 116.381 22.2347 116.053 22.5947C115.725 22.9502 115.463 23.3604 115.267 23.8252C115.071 24.29 114.945 24.7799 114.891 25.2949L114.863 25.5752C114.827 26.0674 114.872 26.5277 115 26.9561C115.128 27.3844 115.326 27.7604 115.595 28.084C115.868 28.4076 116.208 28.6628 116.613 28.8496C117.019 29.0319 117.475 29.1276 117.98 29.1367C118.34 29.1413 118.703 29.0957 119.067 29C119.432 28.9089 119.771 28.7653 120.086 28.5693C120.405 28.3688 120.667 28.1136 120.872 27.8037L120.011 26.7646C119.765 27.0199 119.487 27.2249 119.177 27.3799C118.871 27.5303 118.536 27.6009 118.172 27.5918C117.885 27.5827 117.646 27.5189 117.454 27.4004C117.267 27.2819 117.119 27.127 117.01 26.9355C116.905 26.7441 116.834 26.5299 116.798 26.293C116.779 26.1654 116.768 26.0378 116.766 25.9102H121.316L121.426 25.0898C121.476 24.6204 121.46 24.1715 121.378 23.7432C121.296 23.3102 121.143 22.9251 120.92 22.5879C120.697 22.2507 120.403 21.9818 120.038 21.7812C119.674 21.5807 119.234 21.4759 118.719 21.4668ZM125.685 21.4668C125.334 21.4577 124.98 21.501 124.625 21.5967C124.27 21.6924 123.941 21.8382 123.641 22.0342C123.34 22.2256 123.094 22.4694 122.902 22.7656C122.715 23.0573 122.615 23.4014 122.602 23.7979C122.588 24.1305 122.647 24.4199 122.779 24.666C122.911 24.9076 123.089 25.1126 123.312 25.2812C123.536 25.4499 123.784 25.5911 124.058 25.7051C124.336 25.8145 124.611 25.9056 124.885 25.9785C125.04 26.015 125.222 26.0651 125.432 26.1289C125.646 26.1927 125.826 26.2861 125.972 26.4092C126.118 26.5277 126.172 26.6963 126.136 26.915C126.099 27.1201 126.013 27.2865 125.876 27.4141C125.739 27.5371 125.577 27.626 125.391 27.6807C125.208 27.7354 125.024 27.7604 124.837 27.7559C124.6 27.7559 124.395 27.7148 124.222 27.6328C124.053 27.5462 123.923 27.4209 123.832 27.2568C123.741 27.0928 123.693 26.8923 123.688 26.6553L121.884 26.6484C121.888 27.1816 122.025 27.6328 122.294 28.002C122.563 28.3665 122.914 28.6445 123.347 28.8359C123.784 29.0273 124.251 29.1276 124.748 29.1367C125.104 29.1413 125.466 29.1003 125.835 29.0137C126.209 28.9316 126.555 28.7995 126.874 28.6172C127.198 28.4303 127.462 28.1911 127.667 27.8994C127.872 27.6032 127.981 27.2477 127.995 26.833C128.013 26.3454 127.902 25.9557 127.66 25.6641C127.419 25.3678 127.106 25.1377 126.724 24.9736C126.341 24.8096 125.949 24.6751 125.548 24.5703C125.438 24.5475 125.315 24.5179 125.179 24.4814C125.042 24.4404 124.912 24.3903 124.789 24.3311C124.666 24.2673 124.568 24.1852 124.495 24.085C124.422 23.9847 124.399 23.8571 124.427 23.7021C124.459 23.5153 124.536 23.3581 124.659 23.2305C124.782 23.1029 124.928 23.0072 125.097 22.9434C125.27 22.875 125.443 22.8408 125.616 22.8408C125.835 22.8408 126.015 22.8818 126.156 22.9639C126.298 23.0459 126.402 23.1621 126.471 23.3125C126.539 23.4629 126.571 23.6383 126.566 23.8389L128.474 23.8457C128.474 23.3216 128.341 22.8841 128.077 22.5332C127.817 22.1823 127.476 21.918 127.052 21.7402C126.632 21.5625 126.177 21.4714 125.685 21.4668ZM132.671 21.4668C132.32 21.4577 131.967 21.501 131.611 21.5967C131.256 21.6924 130.928 21.8382 130.627 22.0342C130.326 22.2256 130.08 22.4694 129.889 22.7656C129.702 23.0573 129.602 23.4014 129.588 23.7979C129.574 24.1305 129.633 24.4199 129.766 24.666C129.898 24.9076 130.076 25.1126 130.299 25.2812C130.522 25.4499 130.771 25.5911 131.044 25.7051C131.322 25.8145 131.598 25.9056 131.871 25.9785C132.026 26.015 132.208 26.0651 132.418 26.1289C132.632 26.1927 132.812 26.2861 132.958 26.4092C133.104 26.5277 133.159 26.6963 133.122 26.915C133.086 27.1201 132.999 27.2865 132.862 27.4141C132.726 27.5371 132.564 27.626 132.377 27.6807C132.195 27.7354 132.01 27.7604 131.823 27.7559C131.586 27.7559 131.381 27.7148 131.208 27.6328C131.039 27.5462 130.91 27.4209 130.818 27.2568C130.727 27.0928 130.679 26.8923 130.675 26.6553L128.87 26.6484C128.875 27.1816 129.011 27.6328 129.28 28.002C129.549 28.3665 129.9 28.6445 130.333 28.8359C130.771 29.0273 131.238 29.1276 131.734 29.1367C132.09 29.1413 132.452 29.1003 132.821 29.0137C133.195 28.9316 133.541 28.7995 133.86 28.6172C134.184 28.4303 134.448 28.1911 134.653 27.8994C134.858 27.6032 134.968 27.2477 134.981 26.833C135 26.3454 134.888 25.9557 134.646 25.6641C134.405 25.3678 134.093 25.1377 133.71 24.9736C133.327 24.8096 132.935 24.6751 132.534 24.5703C132.425 24.5475 132.302 24.5179 132.165 24.4814C132.028 24.4404 131.898 24.3903 131.775 24.3311C131.652 24.2673 131.554 24.1852 131.481 24.085C131.409 23.9847 131.386 23.8571 131.413 23.7021C131.445 23.5153 131.522 23.3581 131.646 23.2305C131.769 23.1029 131.914 23.0072 132.083 22.9434C132.256 22.875 132.429 22.8408 132.603 22.8408C132.821 22.8408 133.001 22.8818 133.143 22.9639C133.284 23.0459 133.389 23.1621 133.457 23.3125C133.525 23.4629 133.557 23.6383 133.553 23.8389L135.46 23.8457C135.46 23.3216 135.328 22.8841 135.063 22.5332C134.804 22.1823 134.462 21.918 134.038 21.7402C133.619 21.5625 133.163 21.4714 132.671 21.4668ZM80.1436 29H83.958C84.6051 29.0046 85.2135 28.9066 85.7832 28.7061C86.3574 28.5055 86.8291 28.1865 87.1982 27.749C87.5674 27.3115 87.7747 26.7373 87.8203 26.0264C87.8522 25.5661 87.7816 25.1719 87.6084 24.8438C87.4352 24.5156 87.1823 24.2627 86.8496 24.085C86.7409 24.0246 86.6256 23.9735 86.5039 23.9307C86.6189 23.8956 86.732 23.8563 86.8428 23.8115C87.2757 23.6383 87.6312 23.3809 87.9092 23.0391C88.1872 22.6927 88.3421 22.2507 88.374 21.7129C88.4059 21.2207 88.3353 20.806 88.1621 20.4688C87.9935 20.1315 87.7542 19.8604 87.4443 19.6553C87.1344 19.4502 86.779 19.2998 86.3779 19.2041C85.9769 19.1084 85.5622 19.0583 85.1338 19.0537L81.8662 19.0469L80.1436 29ZM104.685 21.6035L103.399 29H105.327L106.605 21.6035H104.685ZM111.931 21.46C111.425 21.4508 110.98 21.5465 110.598 21.7471C110.323 21.8928 110.078 22.0785 109.863 22.3037L109.935 21.6035H108.13L106.845 29H108.772L109.689 23.7158C109.705 23.693 109.72 23.6698 109.736 23.6475C109.882 23.4469 110.06 23.2874 110.27 23.1689C110.484 23.0505 110.737 22.9958 111.028 23.0049C111.293 23.0094 111.493 23.0664 111.63 23.1758C111.771 23.2852 111.862 23.4333 111.903 23.6201C111.944 23.807 111.951 24.0212 111.924 24.2627L111.124 29H113.059L113.852 24.2832C113.888 23.9232 113.883 23.5768 113.838 23.2441C113.797 22.9115 113.703 22.613 113.558 22.3486C113.416 22.0843 113.211 21.8747 112.942 21.7197C112.678 21.5602 112.341 21.4736 111.931 21.46ZM84.792 24.6387C85.0745 24.6523 85.3001 24.7161 85.4688 24.8301C85.6419 24.9395 85.7604 25.0967 85.8242 25.3018C85.888 25.5023 85.8994 25.737 85.8584 26.0059C85.8128 26.3249 85.7012 26.5869 85.5234 26.792C85.3457 26.9971 85.1247 27.152 84.8604 27.2568C84.6006 27.3571 84.3203 27.4072 84.0195 27.4072L82.4238 27.4014L82.9043 24.6318L84.792 24.6387ZM118.596 22.998C118.869 23.0072 119.088 23.0778 119.252 23.21C119.416 23.3421 119.528 23.5176 119.587 23.7363C119.646 23.9505 119.658 24.1829 119.621 24.4336L119.587 24.6045L116.941 24.5996C116.949 24.5718 116.954 24.5436 116.962 24.5156C117.035 24.2422 117.14 23.9893 117.276 23.7568C117.413 23.5244 117.589 23.3376 117.803 23.1963C118.017 23.055 118.281 22.9889 118.596 22.998ZM85.0723 20.6602C85.3548 20.6647 85.5986 20.708 85.8037 20.79C86.0133 20.8675 86.166 20.9951 86.2617 21.1729C86.3574 21.3506 86.3848 21.5944 86.3438 21.9043C86.2936 22.2324 86.1729 22.4945 85.9814 22.6904C85.7946 22.8818 85.5622 23.0208 85.2842 23.1074C85.0324 23.1829 84.7691 23.2215 84.4941 23.2275L83.1484 23.2236L83.5957 20.6533L85.0723 20.6602ZM105.97 18.6777C105.669 18.6823 105.411 18.778 105.197 18.9648C104.988 19.1517 104.887 19.4001 104.896 19.71C104.901 20.0107 105.008 20.2477 105.218 20.4209C105.432 20.5941 105.683 20.6784 105.97 20.6738C106.266 20.6693 106.521 20.5736 106.735 20.3867C106.95 20.1999 107.052 19.9515 107.043 19.6416C107.043 19.3454 106.936 19.1107 106.722 18.9375C106.507 18.7598 106.257 18.6732 105.97 18.6777Z" fill="url(#paint0_linear_14_46)"/>
<path d="M0.00582228 26.5657V21.4275C0.00582228 18.676 0.698674 16.579 2.08438 15.2582C3.47008 13.9664 5.34485 13.2771 7.59226 13.2771C9.03618 13.2771 10.3054 13.5378 11.4 14.0823C12.5237 14.6268 13.4204 15.432 14.0259 16.4342C14.6314 17.4363 14.9458 18.6123 14.9458 19.904V20.5644H11.6853V19.904C11.6853 18.7571 11.3418 17.9229 10.6198 17.2915C9.89788 16.6311 8.91974 16.3125 7.59226 16.3125C6.14833 16.3125 5.08285 16.6833 4.36089 17.4885C3.63893 18.2647 3.2663 19.5854 3.2663 21.5029V26.67C3.2663 30.0588 4.68111 31.6344 7.62137 31.6344C8.94885 31.6344 9.89788 31.3216 10.649 30.6902C11.3418 30.0588 11.6853 29.2246 11.6853 28.0777V27.3883H14.8876V28.0777C14.8876 30.0878 14.1947 31.7213 12.8672 32.9262C11.5689 34.1022 9.78143 34.7046 7.58643 34.7046C5.39143 34.7046 3.46426 34.0153 2.07855 32.7235C0.692851 31.4027 0 29.3057 0 26.5542" fill="black"/>
<path d="M17.6006 26.5657V21.4275C17.6006 18.676 18.2934 16.579 19.65 15.2582C21.0066 13.9664 22.8523 13.2771 25.0997 13.2771C27.3471 13.2771 29.1636 13.9664 30.5202 15.2582C31.8477 16.579 32.5406 18.676 32.5406 21.4275V26.5657C32.5406 29.3173 31.8477 31.4143 30.4911 32.7351C29.1345 34.0269 27.2889 34.7162 25.0706 34.7162C22.8523 34.7162 20.9775 34.0269 19.6209 32.7351C18.2934 31.4143 17.6006 29.3173 17.6006 26.5657ZM25.0997 16.3183C23.6558 16.3183 22.6194 16.6891 21.9265 17.4942C21.2046 18.2994 20.8611 19.6202 20.8611 21.5086V26.6758C20.8611 28.4832 21.2046 29.717 21.9265 30.4933C22.6485 31.2695 23.6558 31.6402 25.0997 31.6402C27.9293 31.6402 29.2801 30.0646 29.2801 26.6758V21.5086C29.2801 17.9808 27.9235 16.3125 25.0997 16.3125" fill="black"/>
<path d="M48.43 15.5131C49.7574 16.8338 50.4503 18.9308 50.4503 21.6824V26.3282C50.4503 29.0798 49.7574 31.1767 48.43 32.4975C47.0734 33.7893 45.2277 34.4786 42.9803 34.4786H35.5977V13.5377H42.9803C45.2277 13.5377 47.0734 14.2271 48.43 15.5189M47.1607 26.4498V21.7693C47.1607 19.875 46.8172 18.5832 46.0952 17.7549C45.3733 16.9497 44.3951 16.5789 43.0094 16.5789H38.8872V31.4432H43.0094C45.8332 31.4432 47.1607 29.8386 47.1607 26.4498Z" fill="black"/>
<path d="M65.3028 22.3196V25.3608H56.7673V31.4432H66.7467V34.4844H53.5068V13.5377H66.7467V16.5789H56.7673V22.3196H65.3028Z" fill="black"/>
<path d="M1.27535 7.73338V0.457642H2.39323L5.58966 5.76962H5.00161L8.14565 0.457642H9.26352L9.28681 7.73338H7.98262V2.46194H8.24462L5.58966 6.9108H4.9725L2.2535 2.46194H2.5679V7.73338H1.26953H1.27535Z" fill="black"/>
<path d="M13.7465 7.80868C13.1293 7.80868 12.582 7.68703 12.1221 7.43794C11.6621 7.18885 11.3011 6.85866 11.045 6.43C10.7888 6.00133 10.6665 5.51474 10.6665 4.95863C10.6665 4.40252 10.7888 3.91593 11.0391 3.48726C11.2895 3.0586 11.6272 2.72262 12.0639 2.47932C12.5005 2.23602 12.9954 2.10858 13.5544 2.10858C14.1133 2.10858 14.5791 2.23023 15.0041 2.46773C15.4291 2.70524 15.761 3.04122 16.0055 3.46989C16.2501 3.89855 16.3723 4.40832 16.3723 4.99918C16.3723 5.04552 16.3723 5.10924 16.3723 5.17876C16.3723 5.24827 16.3607 5.31778 16.3549 5.36992H11.7087V4.50679H15.6678L15.1438 4.77905C15.1497 4.46624 15.0856 4.18819 14.9517 3.94489C14.8178 3.7016 14.6315 3.51044 14.3928 3.37141C14.1541 3.23238 13.8804 3.16866 13.5602 3.16866C13.24 3.16866 12.9663 3.23817 12.7218 3.37141C12.4772 3.50464 12.2851 3.7016 12.1512 3.95069C12.0173 4.19978 11.9532 4.48942 11.9532 4.81381V5.02235C11.9532 5.35254 12.0289 5.64797 12.1803 5.90285C12.3317 6.15774 12.5413 6.36049 12.8207 6.49951C13.1002 6.64433 13.4204 6.71384 13.7931 6.71384C14.1075 6.71384 14.3869 6.66171 14.6373 6.55744C14.8877 6.45317 15.1089 6.30256 15.3069 6.09981L16.0172 6.9108C15.761 7.20044 15.4408 7.42056 15.0623 7.57697C14.6839 7.72758 14.2472 7.80868 13.764 7.80868H13.7465Z" fill="black"/>
<path d="M17.6357 7.73338V2.18389H18.8817V3.67264L18.6488 3.22659C18.8351 2.87323 19.1088 2.60097 19.4698 2.40402C19.8307 2.20706 20.2441 2.11438 20.7099 2.11438C21.2339 2.11438 21.6822 2.24182 22.0665 2.4967C22.4508 2.75159 22.7011 3.1455 22.8292 3.68422L22.3285 3.49886C22.5032 3.08757 22.8001 2.75738 23.2193 2.5025C23.6385 2.24761 24.1218 2.12017 24.6691 2.12017C25.1174 2.12017 25.5075 2.20706 25.8568 2.38085C26.2061 2.55463 26.474 2.8211 26.6661 3.18025C26.8582 3.5394 26.9572 4.00283 26.9572 4.56473V7.74497H25.6647V4.73272C25.6647 4.24033 25.554 3.87539 25.3328 3.63209C25.1116 3.38879 24.803 3.26714 24.3954 3.26714C24.1101 3.26714 23.8598 3.33086 23.6385 3.45251C23.4173 3.57995 23.2484 3.76532 23.1262 4.00862C23.0039 4.25192 22.9457 4.55893 22.9457 4.92967V7.74497H21.6473V4.73272C21.6473 4.24033 21.5367 3.87539 21.3154 3.63209C21.0942 3.38879 20.7856 3.26714 20.378 3.26714C20.0927 3.26714 19.8424 3.33086 19.6211 3.45251C19.3999 3.57995 19.231 3.76532 19.1088 4.00862C18.9865 4.25192 18.9283 4.55893 18.9283 4.92967V7.74497H17.6357V7.73338Z" fill="black"/>
<path d="M28.6342 7.73339V0.0231934H29.9268V3.47569L29.822 4.95285L29.8744 6.43001V7.73918H28.6284L28.6342 7.73339ZM31.7142 7.80869C31.2484 7.80869 30.8292 7.70442 30.4508 7.50168C30.0723 7.29893 29.7812 6.98612 29.5775 6.56325C29.3737 6.14037 29.2689 5.60744 29.2689 4.96444C29.2689 4.32144 29.3795 3.77692 29.5949 3.35984C29.8103 2.94276 30.1015 2.62995 30.4741 2.4272C30.8467 2.22445 31.2601 2.12018 31.7201 2.12018C32.2615 2.12018 32.7448 2.23604 33.1698 2.47354C33.5948 2.71104 33.9325 3.04123 34.1771 3.4699C34.4216 3.89857 34.5497 4.39674 34.5497 4.96444C34.5497 5.53213 34.4274 6.0419 34.1771 6.46477C33.9325 6.89343 33.5948 7.22362 33.1698 7.45533C32.7448 7.69284 32.2615 7.80869 31.7201 7.80869H31.7142ZM31.557 6.70807C31.8773 6.70807 32.1625 6.63855 32.4071 6.49373C32.6516 6.34891 32.8496 6.14617 32.9951 5.8797C33.1407 5.61323 33.2164 5.30621 33.2164 4.95865C33.2164 4.61108 33.1465 4.29827 32.9951 4.03759C32.8496 3.77692 32.6516 3.57417 32.4071 3.43514C32.1625 3.29032 31.8773 3.22081 31.557 3.22081C31.2368 3.22081 30.9748 3.29032 30.7244 3.43514C30.4741 3.57996 30.2761 3.77692 30.1306 4.03759C29.985 4.29827 29.9093 4.60529 29.9093 4.95865C29.9093 5.312 29.9792 5.61323 30.1306 5.8797C30.2761 6.14617 30.4741 6.34891 30.7244 6.49373C30.9748 6.63855 31.2543 6.70807 31.557 6.70807Z" fill="black"/>
<path d="M35.8013 7.73338V2.18389H37.0472V3.71319L36.9017 3.26714C37.0589 2.89061 37.3209 2.60677 37.6877 2.40981C38.0545 2.21286 38.4912 2.11438 39.0152 2.11438V3.35404C38.9686 3.34824 38.9162 3.34245 38.8696 3.33666C38.823 3.33666 38.7765 3.33666 38.7357 3.33666C38.235 3.33666 37.8391 3.48148 37.548 3.76532C37.2568 4.04917 37.1113 4.48363 37.1113 5.06291V7.74497H35.8187L35.8013 7.73338Z" fill="black"/>
<path d="M42.6425 7.80868C42.0253 7.80868 41.478 7.68703 41.0181 7.43794C40.5581 7.18885 40.1971 6.85866 39.9409 6.43C39.6848 6.00133 39.5625 5.51474 39.5625 4.95863C39.5625 4.40252 39.6848 3.91593 39.9351 3.48726C40.1855 3.0586 40.5232 2.72262 40.9598 2.47932C41.3965 2.23602 41.8914 2.10858 42.4504 2.10858C43.0093 2.10858 43.4751 2.23023 43.9001 2.46773C44.3251 2.70524 44.657 3.04122 44.9015 3.46989C45.1461 3.89855 45.2683 4.40832 45.2683 4.99918C45.2683 5.04552 45.2683 5.10924 45.2683 5.17876C45.2683 5.24827 45.2567 5.31778 45.2509 5.36992H40.6047V4.50679H44.5638L44.0398 4.77905C44.0457 4.46624 43.9816 4.18819 43.8477 3.94489C43.7138 3.7016 43.5275 3.51044 43.2888 3.37141C43.05 3.23238 42.7764 3.16866 42.4562 3.16866C42.1359 3.16866 41.8623 3.23817 41.6178 3.37141C41.3732 3.50464 41.1811 3.7016 41.0472 3.95069C40.9133 4.19978 40.8492 4.48942 40.8492 4.81381V5.02235C40.8492 5.35254 40.9249 5.64797 41.0763 5.90285C41.2277 6.15774 41.4373 6.36049 41.7167 6.49951C41.9962 6.64433 42.3164 6.71384 42.6891 6.71384C43.0035 6.71384 43.2829 6.66171 43.5333 6.55744C43.7837 6.45317 44.0049 6.30256 44.2029 6.09981L44.9132 6.9108C44.657 7.20044 44.3368 7.42056 43.9583 7.57697C43.5799 7.72758 43.1432 7.80868 42.66 7.80868H42.6425Z" fill="black"/>
<path d="M48.2554 7.80868C47.7838 7.80868 47.3355 7.74496 46.9105 7.6291C46.4854 7.50746 46.1419 7.36264 45.8857 7.18885L46.3865 6.19829C46.6368 6.36048 46.9396 6.48793 47.2831 6.5864C47.6324 6.68488 47.9818 6.73702 48.3369 6.73702C48.7387 6.73702 49.0356 6.68488 49.2219 6.57482C49.4082 6.46476 49.5014 6.31994 49.5014 6.13457C49.5014 5.98395 49.4373 5.8681 49.3151 5.787C49.187 5.7059 49.0239 5.64797 48.826 5.60742C48.6222 5.56687 48.401 5.52632 48.1506 5.49157C47.9061 5.45681 47.6557 5.41047 47.4112 5.35254C47.1666 5.29461 46.9396 5.20772 46.7358 5.09187C46.532 4.97601 46.369 4.8254 46.2467 4.62844C46.1245 4.43728 46.0604 4.17661 46.0604 3.84642C46.0604 3.49885 46.1594 3.19762 46.3632 2.93695C46.5669 2.67627 46.8464 2.47353 47.2132 2.32871C47.58 2.18389 48.0109 2.10858 48.5116 2.10858C48.8784 2.10858 49.2568 2.15492 49.6469 2.23602C50.0312 2.32291 50.3573 2.44456 50.6134 2.59518L50.1011 3.58574C49.8449 3.43513 49.5771 3.32507 49.3092 3.26714C49.0414 3.20921 48.7678 3.18025 48.5058 3.18025C48.1157 3.18025 47.8246 3.23817 47.6266 3.35403C47.4286 3.46989 47.3355 3.61471 47.3355 3.79428C47.3355 3.96227 47.3995 4.08392 47.5218 4.17081C47.6441 4.2577 47.8129 4.31563 48.0109 4.36197C48.2147 4.40832 48.4359 4.44887 48.6863 4.48942C48.9308 4.52997 49.1812 4.57631 49.4199 4.63424C49.6644 4.69216 49.8856 4.77905 50.0952 4.88333C50.299 4.99339 50.4679 5.144 50.5901 5.33516C50.7124 5.53212 50.7765 5.78121 50.7765 6.09402C50.7765 6.44738 50.6717 6.7486 50.4679 7.00348C50.2641 7.25837 49.973 7.45532 49.6004 7.59435C49.2277 7.73917 48.7794 7.80868 48.2554 7.80868Z" fill="black"/>
<path d="M51.6787 1.42503L53.0877 0H54.6364L52.8082 1.42503H51.6787ZM51.9116 7.73337V2.18388H53.2042V7.73337H51.9116Z" fill="black"/>
<path d="M56.6103 7.80868C56.1911 7.80868 55.8301 7.73917 55.5157 7.59435C55.2013 7.44953 54.9626 7.25257 54.7879 7.00348C54.6191 6.7486 54.5317 6.46475 54.5317 6.14615C54.5317 5.82755 54.6074 5.55529 54.7588 5.3062C54.9102 5.05711 55.1547 4.86015 55.4924 4.71533C55.8359 4.57051 56.2842 4.49521 56.849 4.49521H58.4676V5.35833H56.9422C56.5055 5.35833 56.2086 5.42785 56.0514 5.57267C55.8942 5.71749 55.8185 5.89127 55.8185 6.1056C55.8185 6.33152 55.9116 6.51689 56.0979 6.65592C56.2842 6.79494 56.5462 6.86446 56.8839 6.86446C57.2216 6.86446 57.4895 6.78915 57.7456 6.64433C58.0018 6.49951 58.1881 6.28518 58.3046 6.00133L58.5142 6.78336C58.3919 7.10775 58.1648 7.36264 57.8446 7.54221C57.5244 7.72179 57.111 7.81447 56.6103 7.81447V7.80868ZM58.3686 7.73337V6.59799L58.3046 6.37207V4.40832C58.3046 4.02599 58.1881 3.73056 57.9552 3.52202C57.7223 3.31348 57.3672 3.20342 56.8956 3.20342C56.587 3.20342 56.2842 3.24976 55.9873 3.34824C55.6904 3.44671 55.4284 3.57995 55.2129 3.75373L54.7006 2.80951C55.0092 2.58359 55.3643 2.40981 55.7777 2.28816C56.1911 2.1723 56.6161 2.10858 57.0644 2.10858C57.8795 2.10858 58.5084 2.30554 58.945 2.69365C59.3817 3.08177 59.6029 3.67843 59.6029 4.48362V7.73917H58.3686V7.73337Z" fill="black"/>
<defs>
<linearGradient id="paint0_linear_14_46" x1="108" y1="10" x2="108" y2="38" gradientUnits="userSpaceOnUse">
<stop stop-color="#00E7FF"/>
<stop offset="1" stop-color="#0068FF"/>
</linearGradient>
</defs>
</svg>
