<svg width="144" height="38" viewBox="0 0 144 38" fill="none" xmlns="http://www.w3.org/2000/svg">
<path d="M142 10C143.105 10 144 10.8954 144 12V36C144 37.1046 143.105 38 142 38H74C72.8954 38 72 37.1046 72 36V12C72 10.8954 72.8954 10 74 10H142ZM89.9258 21.6035L89.126 26.3818C89.0895 26.7555 89.0986 27.1064 89.1533 27.4346C89.2126 27.7627 89.3242 28.0544 89.4883 28.3096C89.6523 28.5602 89.8734 28.7607 90.1514 28.9111C90.4294 29.057 90.7712 29.1344 91.1768 29.1436C91.6735 29.1527 92.1042 29.0615 92.4688 28.8701C92.714 28.7413 92.9314 28.5795 93.123 28.3867L93.0566 29H94.8613L96.1465 21.6035H94.2188L93.3164 26.8076C93.1834 27.0313 93.0144 27.2164 92.8037 27.3594C92.5485 27.528 92.2272 27.6055 91.8398 27.5918C91.6576 27.5872 91.5117 27.5531 91.4023 27.4893C91.293 27.4209 91.2087 27.332 91.1494 27.2227C91.0902 27.1133 91.0537 26.9902 91.04 26.8535C91.0264 26.7122 91.0264 26.5641 91.04 26.4092L91.8467 21.6035H89.9258ZM100.146 21.4668C99.7946 21.4577 99.4414 21.501 99.0859 21.5967C98.7305 21.6924 98.4023 21.8382 98.1016 22.0342C97.8008 22.2256 97.5547 22.4694 97.3633 22.7656C97.1764 23.0573 97.0762 23.4014 97.0625 23.7979C97.0488 24.1305 97.1081 24.4199 97.2402 24.666C97.3724 24.9076 97.5501 25.1126 97.7734 25.2812C97.9967 25.4499 98.2451 25.5911 98.5186 25.7051C98.7965 25.8145 99.0723 25.9056 99.3457 25.9785C99.5007 26.015 99.6829 26.0651 99.8926 26.1289C100.107 26.1927 100.287 26.2861 100.433 26.4092C100.578 26.5277 100.633 26.6963 100.597 26.915C100.56 27.1201 100.474 27.2865 100.337 27.4141C100.2 27.5371 100.038 27.626 99.8516 27.6807C99.6693 27.7354 99.4847 27.7604 99.2979 27.7559C99.0609 27.7559 98.8558 27.7148 98.6826 27.6328C98.514 27.5462 98.3841 27.4209 98.293 27.2568C98.2018 27.0928 98.154 26.8923 98.1494 26.6553L96.3447 26.6484C96.3493 27.1816 96.486 27.6328 96.7549 28.002C97.0238 28.3665 97.3747 28.6445 97.8076 28.8359C98.2451 29.0273 98.7122 29.1276 99.209 29.1367C99.5645 29.1413 99.9268 29.1003 100.296 29.0137C100.67 28.9316 101.016 28.7995 101.335 28.6172C101.659 28.4303 101.923 28.1911 102.128 27.8994C102.333 27.6032 102.442 27.2477 102.456 26.833C102.474 26.3454 102.363 25.9557 102.121 25.6641C101.88 25.3678 101.567 25.1377 101.185 24.9736C100.802 24.8096 100.41 24.6751 100.009 24.5703C99.8994 24.5475 99.7764 24.5179 99.6396 24.4814C99.5029 24.4404 99.373 24.3903 99.25 24.3311C99.127 24.2673 99.029 24.1852 98.9561 24.085C98.8831 23.9847 98.8604 23.8571 98.8877 23.7021C98.9196 23.5153 98.9971 23.3581 99.1201 23.2305C99.2432 23.1029 99.389 23.0072 99.5576 22.9434C99.7308 22.875 99.904 22.8408 100.077 22.8408C100.296 22.8408 100.476 22.8818 100.617 22.9639C100.758 23.0459 100.863 23.1621 100.932 23.3125C101 23.4629 101.032 23.6383 101.027 23.8389L102.935 23.8457C102.935 23.3216 102.802 22.8841 102.538 22.5332C102.278 22.1823 101.937 21.918 101.513 21.7402C101.093 21.5625 100.638 21.4714 100.146 21.4668ZM118.719 21.4668C118.167 21.4531 117.666 21.5488 117.215 21.7539C116.768 21.9544 116.381 22.2347 116.053 22.5947C115.725 22.9502 115.463 23.3604 115.267 23.8252C115.071 24.29 114.945 24.7799 114.891 25.2949L114.863 25.5752C114.827 26.0674 114.872 26.5277 115 26.9561C115.128 27.3844 115.326 27.7604 115.595 28.084C115.868 28.4076 116.208 28.6628 116.613 28.8496C117.019 29.0319 117.475 29.1276 117.98 29.1367C118.34 29.1413 118.703 29.0957 119.067 29C119.432 28.9089 119.771 28.7653 120.086 28.5693C120.405 28.3688 120.667 28.1136 120.872 27.8037L120.011 26.7646C119.765 27.0199 119.487 27.2249 119.177 27.3799C118.871 27.5303 118.536 27.6009 118.172 27.5918C117.885 27.5827 117.646 27.5189 117.454 27.4004C117.267 27.2819 117.119 27.127 117.01 26.9355C116.905 26.7441 116.834 26.5299 116.798 26.293C116.779 26.1654 116.768 26.0378 116.766 25.9102H121.316L121.426 25.0898C121.476 24.6204 121.46 24.1715 121.378 23.7432C121.296 23.3102 121.143 22.9251 120.92 22.5879C120.697 22.2507 120.403 21.9818 120.038 21.7812C119.674 21.5807 119.234 21.4759 118.719 21.4668ZM125.685 21.4668C125.334 21.4577 124.98 21.501 124.625 21.5967C124.27 21.6924 123.941 21.8382 123.641 22.0342C123.34 22.2256 123.094 22.4694 122.902 22.7656C122.715 23.0573 122.615 23.4014 122.602 23.7979C122.588 24.1305 122.647 24.4199 122.779 24.666C122.911 24.9076 123.089 25.1126 123.312 25.2812C123.536 25.4499 123.784 25.5911 124.058 25.7051C124.336 25.8145 124.611 25.9056 124.885 25.9785C125.04 26.015 125.222 26.0651 125.432 26.1289C125.646 26.1927 125.826 26.2861 125.972 26.4092C126.118 26.5277 126.172 26.6963 126.136 26.915C126.099 27.1201 126.013 27.2865 125.876 27.4141C125.739 27.5371 125.577 27.626 125.391 27.6807C125.208 27.7354 125.024 27.7604 124.837 27.7559C124.6 27.7559 124.395 27.7148 124.222 27.6328C124.053 27.5462 123.923 27.4209 123.832 27.2568C123.741 27.0928 123.693 26.8923 123.688 26.6553L121.884 26.6484C121.888 27.1816 122.025 27.6328 122.294 28.002C122.563 28.3665 122.914 28.6445 123.347 28.8359C123.784 29.0273 124.251 29.1276 124.748 29.1367C125.104 29.1413 125.466 29.1003 125.835 29.0137C126.209 28.9316 126.555 28.7995 126.874 28.6172C127.198 28.4303 127.462 28.1911 127.667 27.8994C127.872 27.6032 127.981 27.2477 127.995 26.833C128.013 26.3454 127.902 25.9557 127.66 25.6641C127.419 25.3678 127.106 25.1377 126.724 24.9736C126.341 24.8096 125.949 24.6751 125.548 24.5703C125.438 24.5475 125.315 24.5179 125.179 24.4814C125.042 24.4404 124.912 24.3903 124.789 24.3311C124.666 24.2673 124.568 24.1852 124.495 24.085C124.422 23.9847 124.399 23.8571 124.427 23.7021C124.459 23.5153 124.536 23.3581 124.659 23.2305C124.782 23.1029 124.928 23.0072 125.097 22.9434C125.27 22.875 125.443 22.8408 125.616 22.8408C125.835 22.8408 126.015 22.8818 126.156 22.9639C126.298 23.0459 126.402 23.1621 126.471 23.3125C126.539 23.4629 126.571 23.6383 126.566 23.8389L128.474 23.8457C128.474 23.3216 128.341 22.8841 128.077 22.5332C127.817 22.1823 127.476 21.918 127.052 21.7402C126.632 21.5625 126.177 21.4714 125.685 21.4668ZM132.671 21.4668C132.32 21.4577 131.967 21.501 131.611 21.5967C131.256 21.6924 130.928 21.8382 130.627 22.0342C130.326 22.2256 130.08 22.4694 129.889 22.7656C129.702 23.0573 129.602 23.4014 129.588 23.7979C129.574 24.1305 129.633 24.4199 129.766 24.666C129.898 24.9076 130.076 25.1126 130.299 25.2812C130.522 25.4499 130.771 25.5911 131.044 25.7051C131.322 25.8145 131.598 25.9056 131.871 25.9785C132.026 26.015 132.208 26.0651 132.418 26.1289C132.632 26.1927 132.812 26.2861 132.958 26.4092C133.104 26.5277 133.159 26.6963 133.122 26.915C133.086 27.1201 132.999 27.2865 132.862 27.4141C132.726 27.5371 132.564 27.626 132.377 27.6807C132.195 27.7354 132.01 27.7604 131.823 27.7559C131.586 27.7559 131.381 27.7148 131.208 27.6328C131.039 27.5462 130.91 27.4209 130.818 27.2568C130.727 27.0928 130.679 26.8923 130.675 26.6553L128.87 26.6484C128.875 27.1816 129.011 27.6328 129.28 28.002C129.549 28.3665 129.9 28.6445 130.333 28.8359C130.771 29.0273 131.238 29.1276 131.734 29.1367C132.09 29.1413 132.452 29.1003 132.821 29.0137C133.195 28.9316 133.541 28.7995 133.86 28.6172C134.184 28.4303 134.448 28.1911 134.653 27.8994C134.858 27.6032 134.968 27.2477 134.981 26.833C135 26.3454 134.888 25.9557 134.646 25.6641C134.405 25.3678 134.093 25.1377 133.71 24.9736C133.327 24.8096 132.935 24.6751 132.534 24.5703C132.425 24.5475 132.302 24.5179 132.165 24.4814C132.028 24.4404 131.898 24.3903 131.775 24.3311C131.652 24.2673 131.554 24.1852 131.481 24.085C131.409 23.9847 131.386 23.8571 131.413 23.7021C131.445 23.5153 131.522 23.3581 131.646 23.2305C131.769 23.1029 131.914 23.0072 132.083 22.9434C132.256 22.875 132.429 22.8408 132.603 22.8408C132.821 22.8408 133.001 22.8818 133.143 22.9639C133.284 23.0459 133.389 23.1621 133.457 23.3125C133.525 23.4629 133.557 23.6383 133.553 23.8389L135.46 23.8457C135.46 23.3216 135.328 22.8841 135.063 22.5332C134.804 22.1823 134.462 21.918 134.038 21.7402C133.619 21.5625 133.163 21.4714 132.671 21.4668ZM80.1436 29H83.958C84.6051 29.0046 85.2135 28.9066 85.7832 28.7061C86.3574 28.5055 86.8291 28.1865 87.1982 27.749C87.5674 27.3115 87.7747 26.7373 87.8203 26.0264C87.8522 25.5661 87.7816 25.1719 87.6084 24.8438C87.4352 24.5156 87.1823 24.2627 86.8496 24.085C86.7409 24.0246 86.6256 23.9735 86.5039 23.9307C86.6189 23.8956 86.732 23.8563 86.8428 23.8115C87.2757 23.6383 87.6312 23.3809 87.9092 23.0391C88.1872 22.6927 88.3421 22.2507 88.374 21.7129C88.4059 21.2207 88.3353 20.806 88.1621 20.4688C87.9935 20.1315 87.7542 19.8604 87.4443 19.6553C87.1344 19.4502 86.779 19.2998 86.3779 19.2041C85.9769 19.1084 85.5622 19.0583 85.1338 19.0537L81.8662 19.0469L80.1436 29ZM104.685 21.6035L103.399 29H105.327L106.605 21.6035H104.685ZM111.931 21.46C111.425 21.4508 110.98 21.5465 110.598 21.7471C110.323 21.8928 110.078 22.0785 109.863 22.3037L109.935 21.6035H108.13L106.845 29H108.772L109.689 23.7158C109.705 23.693 109.72 23.6698 109.736 23.6475C109.882 23.4469 110.06 23.2874 110.27 23.1689C110.484 23.0505 110.737 22.9958 111.028 23.0049C111.293 23.0094 111.493 23.0664 111.63 23.1758C111.771 23.2852 111.862 23.4333 111.903 23.6201C111.944 23.807 111.951 24.0212 111.924 24.2627L111.124 29H113.059L113.852 24.2832C113.888 23.9232 113.883 23.5768 113.838 23.2441C113.797 22.9115 113.703 22.613 113.558 22.3486C113.416 22.0843 113.211 21.8747 112.942 21.7197C112.678 21.5602 112.341 21.4736 111.931 21.46ZM84.792 24.6387C85.0745 24.6523 85.3001 24.7161 85.4688 24.8301C85.6419 24.9395 85.7604 25.0967 85.8242 25.3018C85.888 25.5023 85.8994 25.737 85.8584 26.0059C85.8128 26.3249 85.7012 26.5869 85.5234 26.792C85.3457 26.9971 85.1247 27.152 84.8604 27.2568C84.6006 27.3571 84.3203 27.4072 84.0195 27.4072L82.4238 27.4014L82.9043 24.6318L84.792 24.6387ZM118.596 22.998C118.869 23.0072 119.088 23.0778 119.252 23.21C119.416 23.3421 119.528 23.5176 119.587 23.7363C119.646 23.9505 119.658 24.1829 119.621 24.4336L119.587 24.6045L116.941 24.5996C116.949 24.5718 116.954 24.5436 116.962 24.5156C117.035 24.2422 117.14 23.9893 117.276 23.7568C117.413 23.5244 117.589 23.3376 117.803 23.1963C118.017 23.055 118.281 22.9889 118.596 22.998ZM85.0723 20.6602C85.3548 20.6647 85.5986 20.708 85.8037 20.79C86.0133 20.8675 86.166 20.9951 86.2617 21.1729C86.3574 21.3506 86.3848 21.5944 86.3438 21.9043C86.2936 22.2324 86.1729 22.4945 85.9814 22.6904C85.7946 22.8818 85.5622 23.0208 85.2842 23.1074C85.0324 23.1829 84.7691 23.2215 84.4941 23.2275L83.1484 23.2236L83.5957 20.6533L85.0723 20.6602ZM105.97 18.6777C105.669 18.6823 105.411 18.778 105.197 18.9648C104.988 19.1517 104.887 19.4001 104.896 19.71C104.901 20.0107 105.008 20.2477 105.218 20.4209C105.432 20.5941 105.683 20.6784 105.97 20.6738C106.266 20.6693 106.521 20.5736 106.735 20.3867C106.95 20.1999 107.052 19.9515 107.043 19.6416C107.043 19.3454 106.936 19.1107 106.722 18.9375C106.507 18.7598 106.257 18.6732 105.97 18.6777Z" fill="url(#paint0_linear_351_567)"/>
<path d="M0.00582228 26.566V21.4278C0.00582228 18.6762 0.698674 16.5792 2.08438 15.2585C3.47008 13.9667 5.34485 13.2773 7.59226 13.2773C9.03618 13.2773 10.3054 13.538 11.4 14.0825C12.5237 14.6271 13.4204 15.4323 14.0259 16.4344C14.6314 17.4366 14.9458 18.6125 14.9458 19.9043V20.5647H11.6853V19.9043C11.6853 18.7573 11.3418 17.9232 10.6198 17.2917C9.89788 16.6314 8.91974 16.3128 7.59226 16.3128C6.14833 16.3128 5.08285 16.6835 4.36089 17.4887C3.63893 18.2649 3.2663 19.5857 3.2663 21.5031V26.6703C3.2663 30.059 4.68111 31.6347 7.62137 31.6347C8.94885 31.6347 9.89788 31.3219 10.649 30.6905C11.3418 30.059 11.6853 29.2249 11.6853 28.0779V27.3886H14.8876V28.0779C14.8876 30.088 14.1947 31.7216 12.8672 32.9265C11.5689 34.1024 9.78143 34.7048 7.58643 34.7048C5.39143 34.7048 3.46426 34.0155 2.07855 32.7237C0.692851 31.403 0 29.306 0 26.5544" fill="white"/>
<path d="M17.6006 26.566V21.4278C17.6006 18.6762 18.2934 16.5792 19.65 15.2585C21.0066 13.9667 22.8523 13.2773 25.0997 13.2773C27.3471 13.2773 29.1636 13.9667 30.5202 15.2585C31.8477 16.5792 32.5406 18.6762 32.5406 21.4278V26.566C32.5406 29.3176 31.8477 31.4146 30.4911 32.7353C29.1345 34.0271 27.2889 34.7164 25.0706 34.7164C22.8523 34.7164 20.9775 34.0271 19.6209 32.7353C18.2934 31.4146 17.6006 29.3176 17.6006 26.566ZM25.0997 16.3186C23.6558 16.3186 22.6194 16.6893 21.9265 17.4945C21.2046 18.2997 20.8611 19.6204 20.8611 21.5089V26.6761C20.8611 28.4834 21.2046 29.7173 21.9265 30.4935C22.6485 31.2697 23.6558 31.6405 25.0997 31.6405C27.9293 31.6405 29.2801 30.0648 29.2801 26.6761V21.5089C29.2801 17.9811 27.9235 16.3128 25.0997 16.3128" fill="white"/>
<path d="M48.43 15.5134C49.7574 16.8342 50.4503 18.9312 50.4503 21.6827V26.3286C50.4503 29.0801 49.7574 31.1771 48.43 32.4979C47.0734 33.7897 45.2277 34.479 42.9803 34.479H35.5977V13.5381H42.9803C45.2277 13.5381 47.0734 14.2274 48.43 15.5192M47.1607 26.4502V21.7696C47.1607 19.8754 46.8172 18.5836 46.0952 17.7552C45.3733 16.95 44.3951 16.5793 43.0094 16.5793H38.8872V31.4436H43.0094C45.8332 31.4436 47.1607 29.839 47.1607 26.4502Z" fill="white"/>
<path d="M65.3028 22.3199V25.3612H56.7673V31.4436H66.7467V34.4848H53.5068V13.5381H66.7467V16.5793H56.7673V22.3199H65.3028Z" fill="white"/>
<path d="M1.27535 7.73375V0.458008H2.39323L5.58966 5.76999H5.00161L8.14565 0.458008H9.26352L9.28681 7.73375H7.98262V2.46231H8.24462L5.58966 6.91117H4.9725L2.2535 2.46231H2.5679V7.73375H1.26953H1.27535Z" fill="white"/>
<path d="M13.746 7.8085C13.1288 7.8085 12.5815 7.68685 12.1216 7.43776C11.6616 7.18867 11.3006 6.85848 11.0445 6.42982C10.7883 6.00115 10.666 5.51456 10.666 4.95845C10.666 4.40234 10.7883 3.91575 11.0386 3.48708C11.289 3.05841 11.6267 2.72243 12.0634 2.47914C12.5 2.23584 12.9949 2.1084 13.5539 2.1084C14.1128 2.1084 14.5786 2.23005 15.0036 2.46755C15.4286 2.70506 15.7605 3.04104 16.005 3.4697C16.2496 3.89837 16.3719 4.40813 16.3719 4.999C16.3719 5.04534 16.3719 5.10906 16.3719 5.17857C16.3719 5.24809 16.3602 5.3176 16.3544 5.36974H11.7082V4.50661H15.6674L15.1434 4.77887C15.1492 4.46606 15.0851 4.18801 14.9512 3.94471C14.8173 3.70141 14.631 3.51025 14.3923 3.37123C14.1536 3.2322 13.8799 3.16848 13.5597 3.16848C13.2395 3.16848 12.9658 3.23799 12.7213 3.37123C12.4767 3.50446 12.2846 3.70141 12.1507 3.9505C12.0168 4.19959 11.9527 4.48923 11.9527 4.81363V5.02217C11.9527 5.35236 12.0284 5.64779 12.1798 5.90267C12.3312 6.15755 12.5408 6.3603 12.8203 6.49933C13.0997 6.64415 13.42 6.71366 13.7926 6.71366C14.107 6.71366 14.3865 6.66153 14.6368 6.55726C14.8872 6.45299 15.1084 6.30237 15.3064 6.09963L16.0167 6.91062C15.7605 7.20026 15.4403 7.42038 15.0618 7.57679C14.6834 7.7274 14.2467 7.8085 13.7635 7.8085H13.746Z" fill="white"/>
<path d="M17.6357 7.73326V2.18377H18.8817V3.67252L18.6488 3.22647C18.8351 2.87311 19.1088 2.60085 19.4698 2.4039C19.8307 2.20694 20.2441 2.11426 20.7099 2.11426C21.2339 2.11426 21.6822 2.2417 22.0665 2.49658C22.4508 2.75146 22.7011 3.14537 22.8292 3.6841L22.3285 3.49873C22.5032 3.08745 22.8001 2.75726 23.2193 2.50237C23.6385 2.24749 24.1218 2.12005 24.6691 2.12005C25.1174 2.12005 25.5075 2.20694 25.8568 2.38073C26.2061 2.55451 26.474 2.82098 26.6661 3.18013C26.8582 3.53928 26.9572 4.00271 26.9572 4.56461V7.74484H25.6647V4.7326C25.6647 4.24021 25.554 3.87526 25.3328 3.63197C25.1116 3.38867 24.803 3.26702 24.3954 3.26702C24.1101 3.26702 23.8598 3.33074 23.6385 3.45239C23.4173 3.57983 23.2484 3.7652 23.1262 4.0085C23.0039 4.2518 22.9457 4.55881 22.9457 4.92955V7.74484H21.6473V4.7326C21.6473 4.24021 21.5367 3.87526 21.3154 3.63197C21.0942 3.38867 20.7856 3.26702 20.378 3.26702C20.0927 3.26702 19.8424 3.33074 19.6211 3.45239C19.3999 3.57983 19.231 3.7652 19.1088 4.0085C18.9865 4.2518 18.9283 4.55881 18.9283 4.92955V7.74484H17.6357V7.73326Z" fill="white"/>
<path d="M28.6347 7.73363V0.0234375H29.9273V3.47594L29.8225 4.9531L29.8749 6.43026V7.73942H28.6289L28.6347 7.73363ZM31.7147 7.80894C31.2489 7.80894 30.8297 7.70467 30.4513 7.50192C30.0728 7.29917 29.7817 6.98636 29.5779 6.56349C29.3742 6.14062 29.2694 5.60768 29.2694 4.96468C29.2694 4.32168 29.38 3.77716 29.5954 3.36008C29.8108 2.943 30.1019 2.63019 30.4746 2.42744C30.8472 2.2247 31.2606 2.12043 31.7205 2.12043C32.262 2.12043 32.7453 2.23628 33.1703 2.47378C33.5953 2.71129 33.933 3.04148 34.1775 3.47014C34.4221 3.89881 34.5502 4.39699 34.5502 4.96468C34.5502 5.53237 34.4279 6.04214 34.1775 6.46501C33.933 6.89368 33.5953 7.22387 33.1703 7.45558C32.7453 7.69308 32.262 7.80894 31.7205 7.80894H31.7147ZM31.5575 6.70831C31.8777 6.70831 32.163 6.6388 32.4076 6.49398C32.6521 6.34916 32.8501 6.14641 32.9956 5.87994C33.1412 5.61347 33.2169 5.30646 33.2169 4.95889C33.2169 4.61132 33.147 4.29851 32.9956 4.03784C32.8501 3.77716 32.6521 3.57441 32.4076 3.43539C32.163 3.29057 31.8777 3.22105 31.5575 3.22105C31.2373 3.22105 30.9753 3.29057 30.7249 3.43539C30.4746 3.58021 30.2766 3.77716 30.1311 4.03784C29.9855 4.29851 29.9098 4.60553 29.9098 4.95889C29.9098 5.31225 29.9797 5.61347 30.1311 5.87994C30.2766 6.14641 30.4746 6.34916 30.7249 6.49398C30.9753 6.6388 31.2548 6.70831 31.5575 6.70831Z" fill="white"/>
<path d="M35.8008 7.73326V2.18377H37.0467V3.71307L36.9012 3.26702C37.0584 2.89049 37.3204 2.60664 37.6872 2.40969C38.054 2.21273 38.4907 2.11426 39.0147 2.11426V3.35391C38.9681 3.34812 38.9157 3.34233 38.8691 3.33654C38.8225 3.33654 38.776 3.33654 38.7352 3.33654C38.2345 3.33654 37.8386 3.48135 37.5475 3.7652C37.2564 4.04905 37.1108 4.48351 37.1108 5.06278V7.74484H35.8182L35.8008 7.73326Z" fill="white"/>
<path d="M42.6425 7.8085C42.0253 7.8085 41.478 7.68685 41.0181 7.43776C40.5581 7.18867 40.1971 6.85848 39.9409 6.42982C39.6848 6.00115 39.5625 5.51456 39.5625 4.95845C39.5625 4.40234 39.6848 3.91575 39.9351 3.48708C40.1855 3.05841 40.5232 2.72243 40.9598 2.47914C41.3965 2.23584 41.8914 2.1084 42.4504 2.1084C43.0093 2.1084 43.4751 2.23005 43.9001 2.46755C44.3251 2.70506 44.657 3.04104 44.9015 3.4697C45.1461 3.89837 45.2683 4.40813 45.2683 4.999C45.2683 5.04534 45.2683 5.10906 45.2683 5.17857C45.2683 5.24809 45.2567 5.3176 45.2509 5.36974H40.6047V4.50661H44.5638L44.0398 4.77887C44.0457 4.46606 43.9816 4.18801 43.8477 3.94471C43.7138 3.70141 43.5275 3.51025 43.2888 3.37123C43.05 3.2322 42.7764 3.16848 42.4562 3.16848C42.1359 3.16848 41.8623 3.23799 41.6178 3.37123C41.3732 3.50446 41.1811 3.70141 41.0472 3.9505C40.9133 4.19959 40.8492 4.48923 40.8492 4.81363V5.02217C40.8492 5.35236 40.9249 5.64779 41.0763 5.90267C41.2277 6.15755 41.4373 6.3603 41.7167 6.49933C41.9962 6.64415 42.3164 6.71366 42.6891 6.71366C43.0035 6.71366 43.2829 6.66153 43.5333 6.55726C43.7837 6.45299 44.0049 6.30237 44.2029 6.09963L44.9132 6.91062C44.657 7.20026 44.3368 7.42038 43.9583 7.57679C43.5799 7.7274 43.1432 7.8085 42.66 7.8085H42.6425Z" fill="white"/>
<path d="M48.2554 7.8085C47.7838 7.8085 47.3355 7.74478 46.9105 7.62892C46.4854 7.50727 46.1419 7.36245 45.8857 7.18867L46.3865 6.1981C46.6368 6.3603 46.9396 6.48774 47.2831 6.58622C47.6324 6.6847 47.9818 6.73683 48.3369 6.73683C48.7387 6.73683 49.0356 6.6847 49.2219 6.57464C49.4082 6.46457 49.5014 6.31975 49.5014 6.13438C49.5014 5.98377 49.4373 5.86791 49.3151 5.78682C49.187 5.70572 49.0239 5.64779 48.826 5.60724C48.6222 5.56669 48.401 5.52614 48.1506 5.49138C47.9061 5.45663 47.6557 5.41028 47.4112 5.35236C47.1666 5.29443 46.9396 5.20754 46.7358 5.09168C46.532 4.97583 46.369 4.82521 46.2467 4.62826C46.1245 4.4371 46.0604 4.17642 46.0604 3.84623C46.0604 3.49867 46.1594 3.19744 46.3632 2.93677C46.5669 2.67609 46.8464 2.47334 47.2132 2.32852C47.58 2.1837 48.0109 2.1084 48.5116 2.1084C48.8784 2.1084 49.2568 2.15474 49.6469 2.23584C50.0312 2.32273 50.3573 2.44438 50.6134 2.59499L50.1011 3.58556C49.8449 3.43495 49.5771 3.32488 49.3092 3.26696C49.0414 3.20903 48.7678 3.18006 48.5058 3.18006C48.1157 3.18006 47.8246 3.23799 47.6266 3.35385C47.4286 3.4697 47.3355 3.61452 47.3355 3.7941C47.3355 3.96209 47.3995 4.08374 47.5218 4.17063C47.6441 4.25752 47.8129 4.31545 48.0109 4.36179C48.2147 4.40813 48.4359 4.44868 48.6863 4.48923C48.9308 4.52978 49.1812 4.57612 49.4199 4.63405C49.6644 4.69198 49.8856 4.77887 50.0952 4.88314C50.299 4.9932 50.4679 5.14382 50.5901 5.33498C50.7124 5.53193 50.7765 5.78102 50.7765 6.09383C50.7765 6.44719 50.6717 6.74842 50.4679 7.0033C50.2641 7.25818 49.973 7.45514 49.6004 7.59416C49.2277 7.73898 48.7794 7.8085 48.2554 7.8085Z" fill="white"/>
<path d="M51.6787 1.42503L53.0877 0H54.6364L52.8082 1.42503H51.6787ZM51.9116 7.73337V2.18388H53.2042V7.73337H51.9116Z" fill="white"/>
<path d="M56.6098 7.8085C56.1906 7.8085 55.8296 7.73898 55.5152 7.59416C55.2008 7.44934 54.9621 7.25239 54.7874 7.0033C54.6186 6.74842 54.5312 6.46457 54.5312 6.14597C54.5312 5.82736 54.6069 5.5551 54.7583 5.30601C54.9097 5.05693 55.1542 4.85997 55.4919 4.71515C55.8354 4.57033 56.2838 4.49503 56.8485 4.49503H58.4671V5.35815H56.9417C56.505 5.35815 56.2081 5.42766 56.0509 5.57248C55.8937 5.7173 55.818 5.89109 55.818 6.10542C55.818 6.33134 55.9111 6.51671 56.0974 6.65573C56.2838 6.79476 56.5458 6.86427 56.8835 6.86427C57.2211 6.86427 57.489 6.78897 57.7451 6.64415C58.0013 6.49933 58.1876 6.285 58.3041 6.00115L58.5137 6.78317C58.3914 7.10757 58.1644 7.36245 57.8441 7.54203C57.5239 7.72161 57.1105 7.81429 56.6098 7.81429V7.8085ZM58.3681 7.73319V6.59781L58.3041 6.37189V4.40813C58.3041 4.02581 58.1876 3.73038 57.9547 3.52184C57.7219 3.3133 57.3667 3.20323 56.8951 3.20323C56.5865 3.20323 56.2838 3.24958 55.9868 3.34805C55.6899 3.44653 55.4279 3.57977 55.2125 3.75355L54.7001 2.80933C55.0087 2.58341 55.3638 2.40962 55.7772 2.28797C56.1906 2.17212 56.6156 2.1084 57.0639 2.1084C57.8791 2.1084 58.5079 2.30535 58.9445 2.69347C59.3812 3.08159 59.6025 3.67824 59.6025 4.48344V7.73898H58.3681V7.73319Z" fill="white"/>
<defs>
<linearGradient id="paint0_linear_351_567" x1="108" y1="10" x2="108" y2="38" gradientUnits="userSpaceOnUse">
<stop stop-color="#00E7FF"/>
<stop offset="1" stop-color="#0068FF"/>
</linearGradient>
</defs>
</svg>
