<svg width="127" height="35" viewBox="0 0 127 35" fill="none" xmlns="http://www.w3.org/2000/svg">
<g clip-path="url(#clip0_151_4)">
<path d="M0.500024 26.5657V21.4275C0.500024 18.6759 1.19288 16.579 2.57858 15.2582C3.96428 13.9664 5.83906 13.2771 8.08646 13.2771C9.53038 13.2771 10.7996 13.5377 11.8942 14.0823C13.0179 14.6268 13.9146 15.432 14.5201 16.4341C15.1256 17.4363 15.44 18.6122 15.44 19.904V20.5644H12.1795V19.904C12.1795 18.757 11.836 17.9229 11.114 17.2915C10.3921 16.6311 9.41394 16.3125 8.08646 16.3125C6.64253 16.3125 5.57705 16.6832 4.85509 17.4884C4.13313 18.2647 3.7605 19.5854 3.7605 21.5028V26.67C3.7605 30.0588 5.17532 31.6344 8.11557 31.6344C9.44305 31.6344 10.3921 31.3216 11.1432 30.6902C11.836 30.0588 12.1795 29.2246 12.1795 28.0776V27.3883H15.3818V28.0776C15.3818 30.0877 14.6889 31.7213 13.3614 32.9262C12.0631 34.1021 10.2756 34.7046 8.08064 34.7046C5.88563 34.7046 3.95846 34.0152 2.57276 32.7234C1.18705 31.4027 0.494202 29.3057 0.494202 26.5541" fill="white"/>
<path d="M18.0949 26.5657V21.4275C18.0949 18.6759 18.7878 16.579 20.1444 15.2582C21.5009 13.9664 23.3466 13.2771 25.594 13.2771C27.8414 13.2771 29.658 13.9664 31.0146 15.2582C32.342 16.579 33.0349 18.6759 33.0349 21.4275V26.5657C33.0349 29.3173 32.342 31.4143 30.9854 32.735C29.6289 34.0268 27.7832 34.7162 25.5649 34.7162C23.3466 34.7162 21.4718 34.0268 20.1152 32.735C18.7878 31.4143 18.0949 29.3173 18.0949 26.5657ZM25.594 16.3183C24.1501 16.3183 23.1137 16.689 22.4209 17.4942C21.6989 18.2994 21.3554 19.6202 21.3554 21.5086V26.6758C21.3554 28.4831 21.6989 29.717 22.4209 30.4932C23.1428 31.2695 24.1501 31.6402 25.594 31.6402C28.4236 31.6402 29.7744 30.0646 29.7744 26.6758V21.5086C29.7744 17.9808 28.4178 16.3125 25.594 16.3125" fill="white"/>
<path d="M48.9239 15.5131C50.2514 16.8338 50.9443 18.9308 50.9443 21.6824V26.3282C50.9443 29.0798 50.2514 31.1768 48.9239 32.4975C47.5673 33.7893 45.7217 34.4787 43.4743 34.4787H36.0916V13.5378H43.4743C45.7217 13.5378 47.5673 14.2271 48.9239 15.5189M47.6547 26.4499V21.7693C47.6547 19.8751 47.3112 18.5833 46.5892 17.7549C45.8672 16.9497 44.8891 16.579 43.5034 16.579H39.3812V31.4432H43.5034C46.3272 31.4432 47.6547 29.8386 47.6547 26.4499Z" fill="white"/>
<path d="M65.7969 22.3196V25.3608H57.2615V31.4432H67.2408V34.4845H54.001V13.5378H67.2408V16.579H57.2615V22.3196H65.7969Z" fill="white"/>
<path d="M80.7951 24.0111V34.4844H77.7093V33.7372C77.4473 33.911 77.162 34.05 76.8709 34.1948C76.1489 34.5076 75.2581 34.6524 74.245 34.6524C72.6032 34.6524 71.2466 34.2238 70.2917 33.4186C69.3136 32.5844 68.8187 31.3505 68.8187 29.8039C68.8187 28.3383 69.3369 27.1624 70.2917 26.305C71.2466 25.4998 72.6264 25.0712 74.3033 25.0712H77.6802V23.9821C77.6802 23.0669 77.4473 22.4586 76.9873 22.03C76.5274 21.5723 75.8636 21.3696 74.9379 21.3696C74.0121 21.3696 73.4066 21.5434 72.9467 21.9141C72.5158 22.2559 72.312 22.6903 72.312 23.3217V23.9821H69.2553V23.2638C69.2553 21.8562 69.8026 20.6802 70.8157 19.8461C71.823 19.0177 73.2087 18.5833 74.9088 18.5833C76.7544 18.5833 78.2275 19.0409 79.2347 19.9619C80.2711 20.9119 80.7893 22.2848 80.7893 24.0111M77.6744 28.9755V27.6548H74.5885C72.7429 27.6548 71.9336 28.3151 71.9336 29.7807C71.9336 31.2463 72.7429 31.9356 74.5594 31.9356C75.7122 31.9356 76.4924 31.7039 76.9524 31.2173C77.4415 30.7597 77.6744 30.0414 77.6744 28.9813" fill="white"/>
<path d="M124.747 12.9121H87.776C86.8095 12.9121 86.0235 13.6941 86.0235 14.6557V33.2506C86.0235 34.2122 86.8095 34.9942 87.776 34.9942H124.747C125.714 34.9942 126.5 34.2122 126.5 33.2506V14.6557C126.5 13.6941 125.714 12.9121 124.747 12.9121ZM98.7918 30.3252H95.2285L89.7614 17.5927H93.6565L97.1441 25.8995L100.696 17.5927H104.276L98.7918 30.3252ZM108.666 30.3252H105.045V17.5927H108.666V30.3252ZM122.075 24.8047C121.615 25.4998 120.963 26.0443 120.107 26.4209C119.251 26.8032 118.244 26.9944 117.074 26.9944H114.861V30.3252H111.24V17.5927H117.074C118.244 17.5927 119.257 17.778 120.107 18.1546C120.957 18.5311 121.615 19.0756 122.075 19.7824C122.535 20.4891 122.762 21.3232 122.762 22.2848C122.762 23.2464 122.535 24.1096 122.075 24.8047Z" fill="url(#paint0_linear_151_4)"/>
<path d="M116.852 20.4254H114.861V24.1385H116.852C117.609 24.1385 118.174 23.9763 118.553 23.6577C118.931 23.3333 119.117 22.8815 119.117 22.2848C119.117 21.6882 118.931 21.2653 118.553 20.9293C118.174 20.5933 117.609 20.4311 116.852 20.4311V20.4254Z" fill="url(#paint1_linear_151_4)"/>
<path d="M1.76925 7.73338V0.457642H2.88713L6.08356 5.76962H5.49551L8.63954 0.457642H9.75742L9.78071 7.73338H8.47652V2.46194H8.73852L6.08356 6.9108H5.4664L2.74739 2.46194H3.0618V7.73338H1.76343H1.76925Z" fill="white"/>
<path d="M14.2406 7.80868C13.6234 7.80868 13.0761 7.68703 12.6162 7.43794C12.1562 7.18885 11.7952 6.85866 11.539 6.43C11.2829 6.00133 11.1606 5.51474 11.1606 4.95863C11.1606 4.40252 11.2829 3.91593 11.5332 3.48726C11.7836 3.0586 12.1213 2.72262 12.5579 2.47932C12.9946 2.23602 13.4895 2.10858 14.0484 2.10858C14.6074 2.10858 15.0732 2.23023 15.4982 2.46773C15.9232 2.70524 16.2551 3.04122 16.4996 3.46989C16.7442 3.89855 16.8664 4.40832 16.8664 4.99918C16.8664 5.04552 16.8664 5.10924 16.8664 5.17876C16.8664 5.24827 16.8548 5.31778 16.849 5.36992H12.2028V4.50679H16.1619L15.6379 4.77905C15.6437 4.46624 15.5797 4.18819 15.4458 3.94489C15.3119 3.7016 15.1256 3.51044 14.8868 3.37141C14.6481 3.23238 14.3745 3.16866 14.0543 3.16866C13.734 3.16866 13.4604 3.23817 13.2158 3.37141C12.9713 3.50464 12.7792 3.7016 12.6453 3.95069C12.5114 4.19978 12.4473 4.48942 12.4473 4.81381V5.02235C12.4473 5.35254 12.523 5.64797 12.6744 5.90285C12.8258 6.15774 13.0354 6.36049 13.3148 6.49951C13.5943 6.64433 13.9145 6.71384 14.2871 6.71384C14.6016 6.71384 14.881 6.66171 15.1314 6.55744C15.3817 6.45317 15.603 6.30256 15.8009 6.09981L16.5113 6.9108C16.2551 7.20044 15.9349 7.42056 15.5564 7.57697C15.178 7.72758 14.7413 7.80868 14.258 7.80868H14.2406Z" fill="white"/>
<path d="M18.1299 7.73338V2.18389H19.3758V3.67264L19.143 3.22659C19.3293 2.87323 19.6029 2.60097 19.9639 2.40402C20.3249 2.20706 20.7383 2.11438 21.204 2.11438C21.7281 2.11438 22.1764 2.24182 22.5606 2.4967C22.9449 2.75159 23.1953 3.1455 23.3234 3.68422L22.8226 3.49886C22.9973 3.08757 23.2942 2.75738 23.7134 2.5025C24.1327 2.24761 24.6159 2.12017 25.1632 2.12017C25.6115 2.12017 26.0016 2.20706 26.3509 2.38085C26.7003 2.55463 26.9681 2.8211 27.1602 3.18025C27.3524 3.5394 27.4514 4.00283 27.4514 4.56473V7.74497H26.1588V4.73272C26.1588 4.24033 26.0482 3.87539 25.8269 3.63209C25.6057 3.38879 25.2971 3.26714 24.8896 3.26714C24.6043 3.26714 24.3539 3.33086 24.1327 3.45251C23.9114 3.57995 23.7426 3.76532 23.6203 4.00862C23.498 4.25192 23.4398 4.55893 23.4398 4.92967V7.74497H22.1414V4.73272C22.1414 4.24033 22.0308 3.87539 21.8096 3.63209C21.5883 3.38879 21.2797 3.26714 20.8722 3.26714C20.5869 3.26714 20.3365 3.33086 20.1153 3.45251C19.894 3.57995 19.7252 3.76532 19.6029 4.00862C19.4807 4.25192 19.4224 4.55893 19.4224 4.92967V7.74497H18.1299V7.73338Z" fill="white"/>
<path d="M29.1281 7.73336V0.0231628H30.4207V3.47566L30.3159 4.95282L30.3683 6.42998V7.73915H29.1223L29.1281 7.73336ZM32.2081 7.80866C31.7423 7.80866 31.3231 7.70439 30.9447 7.50165C30.5662 7.2989 30.2751 6.98609 30.0713 6.56322C29.8676 6.14034 29.7628 5.60741 29.7628 4.96441C29.7628 4.32141 29.8734 3.77689 30.0888 3.35981C30.3042 2.94273 30.5954 2.62992 30.968 2.42717C31.3406 2.22442 31.754 2.12015 32.2139 2.12015C32.7554 2.12015 33.2387 2.23601 33.6637 2.47351C34.0887 2.71101 34.4264 3.0412 34.6709 3.46987C34.9155 3.89854 35.0436 4.39671 35.0436 4.96441C35.0436 5.5321 34.9213 6.04186 34.6709 6.46474C34.4264 6.8934 34.0887 7.22359 33.6637 7.4553C33.2387 7.69281 32.7554 7.80866 32.2139 7.80866H32.2081ZM32.0509 6.70803C32.3711 6.70803 32.6564 6.63852 32.901 6.4937C33.1455 6.34888 33.3435 6.14613 33.489 5.87967C33.6346 5.6132 33.7103 5.30618 33.7103 4.95861C33.7103 4.61105 33.6404 4.29824 33.489 4.03756C33.3435 3.77689 33.1455 3.57414 32.901 3.43511C32.6564 3.29029 32.3711 3.22078 32.0509 3.22078C31.7307 3.22078 31.4687 3.29029 31.2183 3.43511C30.968 3.57993 30.77 3.77689 30.6245 4.03756C30.4789 4.29824 30.4032 4.60525 30.4032 4.95861C30.4032 5.31197 30.4731 5.6132 30.6245 5.87967C30.77 6.14613 30.968 6.34888 31.2183 6.4937C31.4687 6.63852 31.7482 6.70803 32.0509 6.70803Z" fill="white"/>
<path d="M36.2954 7.73338V2.18389H37.5414V3.71319L37.3958 3.26714C37.553 2.89061 37.815 2.60677 38.1818 2.40981C38.5486 2.21286 38.9853 2.11438 39.5093 2.11438V3.35404C39.4627 3.34824 39.4103 3.34245 39.3638 3.33666C39.3172 3.33666 39.2706 3.33666 39.2298 3.33666C38.7291 3.33666 38.3332 3.48148 38.0421 3.76532C37.751 4.04917 37.6054 4.48363 37.6054 5.06291V7.74497H36.3129L36.2954 7.73338Z" fill="white"/>
<path d="M43.1366 7.80868C42.5194 7.80868 41.9721 7.68703 41.5122 7.43794C41.0522 7.18885 40.6912 6.85866 40.435 6.43C40.1788 6.00133 40.0566 5.51474 40.0566 4.95863C40.0566 4.40252 40.1788 3.91593 40.4292 3.48726C40.6796 3.0586 41.0173 2.72262 41.4539 2.47932C41.8906 2.23602 42.3855 2.10858 42.9444 2.10858C43.5034 2.10858 43.9692 2.23023 44.3942 2.46773C44.8192 2.70524 45.1511 3.04122 45.3956 3.46989C45.6401 3.89855 45.7624 4.40832 45.7624 4.99918C45.7624 5.04552 45.7624 5.10924 45.7624 5.17876C45.7624 5.24827 45.7508 5.31778 45.7449 5.36992H41.0988V4.50679H45.0579L44.5339 4.77905C44.5397 4.46624 44.4757 4.18819 44.3418 3.94489C44.2079 3.7016 44.0215 3.51044 43.7828 3.37141C43.5441 3.23238 43.2705 3.16866 42.9503 3.16866C42.63 3.16866 42.3564 3.23817 42.1118 3.37141C41.8673 3.50464 41.6752 3.7016 41.5413 3.95069C41.4073 4.19978 41.3433 4.48942 41.3433 4.81381V5.02235C41.3433 5.35254 41.419 5.64797 41.5704 5.90285C41.7218 6.15774 41.9314 6.36049 42.2108 6.49951C42.4903 6.64433 42.8105 6.71384 43.1831 6.71384C43.4975 6.71384 43.777 6.66171 44.0274 6.55744C44.2777 6.45317 44.499 6.30256 44.6969 6.09981L45.4073 6.9108C45.1511 7.20044 44.8308 7.42056 44.4524 7.57697C44.074 7.72758 43.6373 7.80868 43.154 7.80868H43.1366Z" fill="white"/>
<path d="M48.7492 7.80868C48.2776 7.80868 47.8293 7.74496 47.4043 7.6291C46.9793 7.50746 46.6358 7.36264 46.3796 7.18885L46.8803 6.19829C47.1307 6.36048 47.4334 6.48793 47.7769 6.5864C48.1263 6.68488 48.4756 6.73702 48.8308 6.73702C49.2325 6.73702 49.5294 6.68488 49.7157 6.57482C49.9021 6.46476 49.9952 6.31994 49.9952 6.13457C49.9952 5.98395 49.9312 5.8681 49.8089 5.787C49.6808 5.7059 49.5178 5.64797 49.3198 5.60742C49.116 5.56687 48.8948 5.52632 48.6444 5.49157C48.3999 5.45681 48.1495 5.41047 47.905 5.35254C47.6605 5.29461 47.4334 5.20772 47.2296 5.09187C47.0259 4.97601 46.8628 4.8254 46.7406 4.62844C46.6183 4.43728 46.5542 4.17661 46.5542 3.84642C46.5542 3.49885 46.6532 3.19763 46.857 2.93695C47.0608 2.67627 47.3403 2.47353 47.7071 2.32871C48.0739 2.18389 48.5047 2.10858 49.0054 2.10858C49.3722 2.10858 49.7507 2.15492 50.1408 2.23602C50.525 2.32291 50.8511 2.44456 51.1073 2.59518L50.5949 3.58574C50.3387 3.43513 50.0709 3.32507 49.8031 3.26714C49.5353 3.20921 49.2616 3.18025 48.9996 3.18025C48.6095 3.18025 48.3184 3.23817 48.1204 3.35403C47.9225 3.46989 47.8293 3.61471 47.8293 3.79428C47.8293 3.96227 47.8934 4.08392 48.0156 4.17081C48.1379 4.2577 48.3067 4.31563 48.5047 4.36197C48.7085 4.40832 48.9297 4.44887 49.1801 4.48942C49.4246 4.52997 49.675 4.57631 49.9137 4.63424C50.1582 4.69216 50.3795 4.77905 50.5891 4.88333C50.7929 4.99339 50.9617 5.144 51.084 5.33516C51.2062 5.53212 51.2703 5.78121 51.2703 6.09402C51.2703 6.44738 51.1655 6.7486 50.9617 7.00348C50.7579 7.25837 50.4668 7.45532 50.0942 7.59435C49.7216 7.73917 49.2733 7.80868 48.7492 7.80868Z" fill="white"/>
<path d="M52.1727 1.42503L53.5817 0H55.1304L53.3023 1.42503H52.1727ZM52.4056 7.73337V2.18388H53.6982V7.73337H52.4056Z" fill="white"/>
<path d="M57.1042 7.80868C56.685 7.80868 56.324 7.73917 56.0096 7.59435C55.6952 7.44953 55.4565 7.25257 55.2818 7.00348C55.113 6.7486 55.0256 6.46475 55.0256 6.14615C55.0256 5.82755 55.1013 5.55529 55.2527 5.3062C55.4041 5.05711 55.6486 4.86015 55.9863 4.71533C56.3298 4.57051 56.7781 4.49521 57.3429 4.49521H58.9615V5.35833H57.4361C56.9994 5.35833 56.7025 5.42785 56.5453 5.57267C56.388 5.71749 56.3124 5.89127 56.3124 6.1056C56.3124 6.33152 56.4055 6.51689 56.5918 6.65592C56.7781 6.79494 57.0401 6.86446 57.3778 6.86446C57.7155 6.86446 57.9834 6.78915 58.2395 6.64433C58.4957 6.49951 58.682 6.28518 58.7985 6.00133L59.0081 6.78336C58.8858 7.10775 58.6587 7.36264 58.3385 7.54221C58.0183 7.72179 57.6049 7.81447 57.1042 7.81447V7.80868ZM58.8625 7.73337V6.59799L58.7985 6.37207V4.40832C58.7985 4.02599 58.682 3.73056 58.4491 3.52202C58.2162 3.31348 57.8611 3.20342 57.3895 3.20342C57.0809 3.20342 56.7781 3.24976 56.4812 3.34824C56.1843 3.44671 55.9223 3.57995 55.7068 3.75373L55.1945 2.80951C55.5031 2.58359 55.8582 2.40981 56.2716 2.28816C56.685 2.1723 57.11 2.10858 57.5583 2.10858C58.3734 2.10858 59.0023 2.30554 59.4389 2.69365C59.8756 3.08177 60.0968 3.67843 60.0968 4.48362V7.73917H58.8625V7.73337Z" fill="white"/>
</g>
<defs>
<linearGradient id="paint0_linear_151_4" x1="106.262" y1="12.9121" x2="106.262" y2="34.9942" gradientUnits="userSpaceOnUse">
<stop stop-color="#8C7000"/>
<stop offset="0.519231" stop-color="#CE9E00"/>
<stop offset="1" stop-color="#FFCC00"/>
</linearGradient>
<linearGradient id="paint1_linear_151_4" x1="116.989" y1="20.4254" x2="116.989" y2="24.1385" gradientUnits="userSpaceOnUse">
<stop stop-color="#8C7000"/>
<stop offset="0.519231" stop-color="#CE9E00"/>
<stop offset="1" stop-color="#FFCC00"/>
</linearGradient>
<clipPath id="clip0_151_4">
<rect width="126" height="35" fill="white" transform="translate(0.5)"/>
</clipPath>
</defs>
</svg>
