<svg width="126" height="35" viewBox="0 0 126 35" fill="none" xmlns="http://www.w3.org/2000/svg">
<g clip-path="url(#clip0_2159_444)">
<path d="M-3.70933e-05 26.5655V21.4273C-3.70933e-05 18.6757 0.692814 16.5787 2.07852 15.258C3.46422 13.9662 5.339 13.2769 7.5864 13.2769C9.03032 13.2769 10.2996 13.5375 11.3942 14.0821C12.5179 14.6266 13.4145 15.4318 14.02 16.4339C14.6255 17.4361 14.9399 18.612 14.9399 19.9038V20.5642H11.6795V19.9038C11.6795 18.7568 11.3359 17.9227 10.614 17.2913C9.89202 16.6309 8.91388 16.3123 7.5864 16.3123C6.14247 16.3123 5.07699 16.683 4.35503 17.4882C3.63307 18.2644 3.26044 19.5852 3.26044 21.5026V26.6698C3.26044 30.0585 4.67526 31.6342 7.61551 31.6342C8.94299 31.6342 9.89202 31.3214 10.6431 30.69C11.3359 30.0585 11.6795 29.2244 11.6795 28.0774V27.3881H14.8817V28.0774C14.8817 30.0875 14.1889 31.7211 12.8614 32.926C11.563 34.1019 9.77557 34.7044 7.58057 34.7044C5.38557 34.7044 3.4584 34.015 2.0727 32.7232C0.686992 31.4025 -0.00585938 29.3055 -0.00585938 26.5539" fill="black"/>
<path d="M17.5957 26.5655V21.4273C17.5957 18.6757 18.2886 16.5787 19.6451 15.258C21.0017 13.9662 22.8474 13.2769 25.0948 13.2769C27.3422 13.2769 29.1588 13.9662 30.5153 15.258C31.8428 16.5787 32.5357 18.6757 32.5357 21.4273V26.5655C32.5357 29.3171 31.8428 31.4141 30.4862 32.7348C29.1296 34.0266 27.284 34.716 25.0657 34.716C22.8474 34.716 20.9726 34.0266 19.616 32.7348C18.2886 31.4141 17.5957 29.3171 17.5957 26.5655ZM25.0948 16.3181C23.6509 16.3181 22.6145 16.6888 21.9217 17.494C21.1997 18.2992 20.8562 19.62 20.8562 21.5084V26.6756C20.8562 28.4829 21.1997 29.7168 21.9217 30.493C22.6436 31.2692 23.6509 31.64 25.0948 31.64C27.9244 31.64 29.2752 30.0643 29.2752 26.6756V21.5084C29.2752 17.9806 27.9186 16.3123 25.0948 16.3123" fill="black"/>
<path d="M48.4241 15.5129C49.7516 16.8337 50.4444 18.9307 50.4444 21.6823V26.3281C50.4444 29.0796 49.7516 31.1766 48.4241 32.4974C47.0675 33.7892 45.2218 34.4785 42.9744 34.4785H35.5918V13.5376H42.9744C45.2218 13.5376 47.0675 14.2269 48.4241 15.5187M47.1548 26.4497V21.7691C47.1548 19.8749 46.8113 18.5831 46.0894 17.7547C45.3674 16.9495 44.3893 16.5788 43.0036 16.5788H38.8814V31.4431H43.0036C45.8274 31.4431 47.1548 29.8385 47.1548 26.4497Z" fill="black"/>
<path d="M65.2959 22.3195V25.3607H56.7605V31.4431H66.7399V34.4843H53.5V13.5376H66.7399V16.5788H56.7605V22.3195H65.2959Z" fill="black"/>
<path d="M80.2948 24.0113V34.4847H77.209V33.7374C76.947 33.9112 76.6617 34.0502 76.3706 34.195C75.6486 34.5079 74.7578 34.6527 73.7447 34.6527C72.1028 34.6527 70.7463 34.224 69.7914 33.4188C68.8133 32.5847 68.3184 31.3508 68.3184 29.8041C68.3184 28.3385 68.8365 27.1626 69.7914 26.3053C70.7463 25.5001 72.1261 25.0714 73.803 25.0714H77.1799V23.9824C77.1799 23.0671 76.947 22.4589 76.487 22.0302C76.0271 21.5726 75.3633 21.3698 74.4376 21.3698C73.5118 21.3698 72.9063 21.5436 72.4464 21.9143C72.0155 22.2561 71.8117 22.6906 71.8117 23.322V23.9824H68.755V23.2641C68.755 21.8564 69.3023 20.6805 70.3154 19.8463C71.3227 19.018 72.7084 18.5835 74.4085 18.5835C76.2541 18.5835 77.7272 19.0411 78.7344 19.9622C79.7708 20.9122 80.289 22.2851 80.289 24.0113M77.1741 28.9757V27.655H74.0882C72.2426 27.655 71.4333 28.3154 71.4333 29.7809C71.4333 31.2465 72.2426 31.9359 74.0591 31.9359C75.2119 31.9359 75.9921 31.7042 76.4521 31.2176C76.9412 30.7599 77.1741 30.0416 77.1741 28.9815" fill="black"/>
<path d="M124.247 12.9121H87.2759C86.3094 12.9121 85.5234 13.6941 85.5234 14.6557V33.2506C85.5234 34.2122 86.3094 34.9942 87.2759 34.9942H124.247C125.214 34.9942 126 34.2122 126 33.2506V14.6557C126 13.6941 125.214 12.9121 124.247 12.9121ZM98.2917 30.3252H94.7285L89.2613 17.5927H93.1564L96.644 25.8995L100.196 17.5927H103.776L98.2917 30.3252ZM108.166 30.3252H104.545V17.5927H108.166V30.3252ZM121.575 24.8047C121.115 25.4998 120.463 26.0443 119.607 26.4209C118.751 26.8032 117.744 26.9944 116.574 26.9944H114.361V30.3252H110.74V17.5927H116.574C117.744 17.5927 118.757 17.778 119.607 18.1546C120.457 18.5311 121.115 19.0756 121.575 19.7824C122.035 20.4891 122.262 21.3232 122.262 22.2848C122.262 23.2464 122.035 24.1096 121.575 24.8047Z" fill="url(#paint0_linear_2159_444)"/>
<path d="M116.353 20.4253H114.361V24.1385H116.353C117.109 24.1385 117.674 23.9763 118.053 23.6577C118.431 23.3333 118.617 22.8814 118.617 22.2848C118.617 21.6881 118.431 21.2652 118.053 20.9293C117.674 20.5933 117.109 20.4311 116.353 20.4311V20.4253Z" fill="url(#paint1_linear_2159_444)"/>
<path d="M1.26949 7.73326V0.45752H2.38737L5.58381 5.7695H4.99575L8.13979 0.45752H9.25766L9.28095 7.73326H7.97676V2.46182H8.23877L5.58381 6.91068H4.96664L2.24764 2.46182H2.56204V7.73326H1.26367H1.26949Z" fill="black"/>
<path d="M13.7401 7.8085C13.123 7.8085 12.5757 7.68685 12.1157 7.43776C11.6558 7.18867 11.2948 6.85848 11.0386 6.42982C10.7824 6.00115 10.6602 5.51456 10.6602 4.95845C10.6602 4.40234 10.7824 3.91575 11.0328 3.48708C11.2831 3.05841 11.6208 2.72243 12.0575 2.47914C12.4942 2.23584 12.9891 2.1084 13.548 2.1084C14.1069 2.1084 14.5727 2.23005 14.9978 2.46755C15.4228 2.70506 15.7547 3.04104 15.9992 3.4697C16.2437 3.89837 16.366 4.40813 16.366 4.999C16.366 5.04534 16.366 5.10906 16.366 5.17857C16.366 5.24809 16.3543 5.3176 16.3485 5.36974H11.7023V4.50661H15.6615L15.1375 4.77887C15.1433 4.46606 15.0793 4.18801 14.9454 3.94471C14.8114 3.70141 14.6251 3.51025 14.3864 3.37123C14.1477 3.2322 13.8741 3.16848 13.5538 3.16848C13.2336 3.16848 12.96 3.23799 12.7154 3.37123C12.4709 3.50446 12.2788 3.70141 12.1448 3.9505C12.0109 4.19959 11.9469 4.48923 11.9469 4.81363V5.02217C11.9469 5.35236 12.0226 5.64779 12.1739 5.90267C12.3253 6.15755 12.5349 6.3603 12.8144 6.49933C13.0939 6.64415 13.4141 6.71366 13.7867 6.71366C14.1011 6.71366 14.3806 6.66153 14.631 6.55726C14.8813 6.45299 15.1026 6.30237 15.3005 6.09963L16.0108 6.91062C15.7547 7.20026 15.4344 7.42038 15.056 7.57679C14.6775 7.7274 14.2409 7.8085 13.7576 7.8085H13.7401Z" fill="black"/>
<path d="M17.6309 7.73326V2.18377H18.8768V3.67252L18.6439 3.22647C18.8302 2.87311 19.1039 2.60085 19.4649 2.4039C19.8259 2.20694 20.2392 2.11426 20.705 2.11426C21.229 2.11426 21.6773 2.2417 22.0616 2.49658C22.4459 2.75146 22.6962 3.14537 22.8243 3.6841L22.3236 3.49873C22.4983 3.08745 22.7952 2.75726 23.2144 2.50237C23.6336 2.24749 24.1169 2.12005 24.6642 2.12005C25.1125 2.12005 25.5026 2.20694 25.8519 2.38073C26.2013 2.55451 26.4691 2.82098 26.6612 3.18013C26.8534 3.53928 26.9523 4.00271 26.9523 4.56461V7.74484H25.6598V4.7326C25.6598 4.24021 25.5492 3.87526 25.3279 3.63197C25.1067 3.38867 24.7981 3.26702 24.3905 3.26702C24.1052 3.26702 23.8549 3.33074 23.6336 3.45239C23.4124 3.57983 23.2435 3.7652 23.1213 4.0085C22.999 4.2518 22.9408 4.55881 22.9408 4.92955V7.74484H21.6424V4.7326C21.6424 4.24021 21.5318 3.87526 21.3105 3.63197C21.0893 3.38867 20.7807 3.26702 20.3732 3.26702C20.0879 3.26702 19.8375 3.33074 19.6163 3.45239C19.395 3.57983 19.2262 3.7652 19.1039 4.0085C18.9816 4.2518 18.9234 4.55881 18.9234 4.92955V7.74484H17.6309V7.73326Z" fill="black"/>
<path d="M28.6289 7.73314V0.0229492H29.9214V3.47545L29.8166 4.95261L29.869 6.42977V7.73894H28.623L28.6289 7.73314ZM31.7089 7.80845C31.2431 7.80845 30.8239 7.70418 30.4454 7.50143C30.067 7.29869 29.7759 6.98587 29.5721 6.563C29.3683 6.14013 29.2635 5.60719 29.2635 4.96419C29.2635 4.32119 29.3741 3.77667 29.5895 3.35959C29.805 2.94251 30.0961 2.6297 30.4687 2.42695C30.8413 2.22421 31.2547 2.11994 31.7147 2.11994C32.2562 2.11994 32.7394 2.23579 33.1644 2.4733C33.5895 2.7108 33.9271 3.04099 34.1717 3.46966C34.4162 3.89832 34.5443 4.3965 34.5443 4.96419C34.5443 5.53189 34.422 6.04165 34.1717 6.46452C33.9271 6.89319 33.5895 7.22338 33.1644 7.45509C32.7394 7.69259 32.2562 7.80845 31.7147 7.80845H31.7089ZM31.5517 6.70782C31.8719 6.70782 32.1572 6.63831 32.4017 6.49349C32.6462 6.34867 32.8442 6.14592 32.9898 5.87945C33.1353 5.61299 33.211 5.30597 33.211 4.9584C33.211 4.61083 33.1411 4.29802 32.9898 4.03735C32.8442 3.77667 32.6462 3.57393 32.4017 3.4349C32.1572 3.29008 31.8719 3.22057 31.5517 3.22057C31.2314 3.22057 30.9694 3.29008 30.7191 3.4349C30.4687 3.57972 30.2708 3.77667 30.1252 4.03735C29.9796 4.29802 29.9039 4.60504 29.9039 4.9584C29.9039 5.31176 29.9738 5.61299 30.1252 5.87945C30.2708 6.14592 30.4687 6.34867 30.7191 6.49349C30.9694 6.63831 31.2489 6.70782 31.5517 6.70782Z" fill="black"/>
<path d="M35.7949 7.73326V2.18377H37.0409V3.71307L36.8953 3.26702C37.0525 2.89049 37.3145 2.60664 37.6813 2.40969C38.0481 2.21273 38.4848 2.11426 39.0088 2.11426V3.35391C38.9622 3.34812 38.9098 3.34233 38.8633 3.33654C38.8167 3.33654 38.7701 3.33654 38.7294 3.33654C38.2286 3.33654 37.8327 3.48135 37.5416 3.7652C37.2505 4.04905 37.1049 4.48351 37.1049 5.06278V7.74484H35.8124L35.7949 7.73326Z" fill="black"/>
<path d="M42.6366 7.8085C42.0195 7.8085 41.4722 7.68685 41.0122 7.43776C40.5523 7.18867 40.1913 6.85848 39.9351 6.42982C39.6789 6.00115 39.5566 5.51456 39.5566 4.95845C39.5566 4.40234 39.6789 3.91575 39.9293 3.48708C40.1796 3.05841 40.5173 2.72243 40.954 2.47914C41.3907 2.23584 41.8856 2.1084 42.4445 2.1084C43.0034 2.1084 43.4692 2.23005 43.8942 2.46755C44.3193 2.70506 44.6511 3.04104 44.8957 3.4697C45.1402 3.89837 45.2625 4.40813 45.2625 4.999C45.2625 5.04534 45.2625 5.10906 45.2625 5.17857C45.2625 5.24809 45.2508 5.3176 45.245 5.36974H40.5988V4.50661H44.558L44.034 4.77887C44.0398 4.46606 43.9758 4.18801 43.8418 3.94471C43.7079 3.70141 43.5216 3.51025 43.2829 3.37123C43.0442 3.2322 42.7705 3.16848 42.4503 3.16848C42.1301 3.16848 41.8564 3.23799 41.6119 3.37123C41.3674 3.50446 41.1752 3.70141 41.0413 3.9505C40.9074 4.19959 40.8434 4.48923 40.8434 4.81363V5.02217C40.8434 5.35236 40.9191 5.64779 41.0704 5.90267C41.2218 6.15755 41.4314 6.3603 41.7109 6.49933C41.9904 6.64415 42.3106 6.71366 42.6832 6.71366C42.9976 6.71366 43.2771 6.66153 43.5274 6.55726C43.7778 6.45299 43.999 6.30237 44.197 6.09963L44.9073 6.91062C44.6511 7.20026 44.3309 7.42038 43.9525 7.57679C43.574 7.7274 43.1373 7.8085 42.6541 7.8085H42.6366Z" fill="black"/>
<path d="M48.2486 7.8085C47.777 7.8085 47.3287 7.74478 46.9036 7.62892C46.4786 7.50727 46.1351 7.36245 45.8789 7.18867L46.3796 6.1981C46.63 6.3603 46.9327 6.48774 47.2763 6.58622C47.6256 6.6847 47.9749 6.73683 48.3301 6.73683C48.7318 6.73683 49.0288 6.6847 49.2151 6.57463C49.4014 6.46457 49.4945 6.31975 49.4945 6.13438C49.4945 5.98377 49.4305 5.86791 49.3082 5.78682C49.1801 5.70572 49.0171 5.64779 48.8192 5.60724C48.6154 5.56669 48.3941 5.52614 48.1438 5.49138C47.8992 5.45663 47.6489 5.41029 47.4043 5.35236C47.1598 5.29443 46.9327 5.20754 46.729 5.09168C46.5252 4.97583 46.3622 4.82521 46.2399 4.62826C46.1176 4.4371 46.0536 4.17642 46.0536 3.84623C46.0536 3.49867 46.1526 3.19744 46.3563 2.93677C46.5601 2.67609 46.8396 2.47334 47.2064 2.32852C47.5732 2.1837 48.004 2.1084 48.5048 2.1084C48.8716 2.1084 49.25 2.15474 49.6401 2.23584C50.0244 2.32273 50.3504 2.44438 50.6066 2.59499L50.0942 3.58556C49.8381 3.43495 49.5702 3.32488 49.3024 3.26696C49.0346 3.20903 48.7609 3.18006 48.4989 3.18006C48.1088 3.18006 47.8177 3.23799 47.6198 3.35385C47.4218 3.4697 47.3287 3.61452 47.3287 3.7941C47.3287 3.96209 47.3927 4.08374 47.515 4.17063C47.6372 4.25752 47.8061 4.31545 48.004 4.36179C48.2078 4.40813 48.4291 4.44868 48.6794 4.48923C48.924 4.52978 49.1743 4.57612 49.413 4.63405C49.6576 4.69198 49.8788 4.77887 50.0884 4.88314C50.2922 4.9932 50.461 5.14382 50.5833 5.33498C50.7056 5.53193 50.7696 5.78102 50.7696 6.09383C50.7696 6.44719 50.6648 6.74842 50.461 7.0033C50.2573 7.25818 49.9661 7.45514 49.5935 7.59416C49.2209 7.73898 48.7726 7.8085 48.2486 7.8085Z" fill="black"/>
<path d="M51.6738 1.42503L53.0828 0H54.6315L52.8034 1.42503H51.6738ZM51.9067 7.73337V2.18388H53.1993V7.73337H51.9067Z" fill="black"/>
<path d="M56.6039 7.8085C56.1847 7.8085 55.8238 7.73898 55.5094 7.59416C55.1949 7.44934 54.9562 7.25239 54.7816 7.0033C54.6127 6.74842 54.5254 6.46457 54.5254 6.14597C54.5254 5.82737 54.6011 5.5551 54.7525 5.30601C54.9038 5.05692 55.1484 4.85997 55.4861 4.71515C55.8296 4.57033 56.2779 4.49503 56.8427 4.49503H58.4613V5.35815H56.9358C56.4991 5.35815 56.2022 5.42766 56.045 5.57248C55.8878 5.7173 55.8121 5.89109 55.8121 6.10542C55.8121 6.33134 55.9053 6.51671 56.0916 6.65573C56.2779 6.79476 56.5399 6.86427 56.8776 6.86427C57.2153 6.86427 57.4831 6.78897 57.7393 6.64415C57.9955 6.49933 58.1818 6.28499 58.2982 6.00115L58.5078 6.78317C58.3856 7.10757 58.1585 7.36245 57.8383 7.54203C57.518 7.72161 57.1047 7.81429 56.6039 7.81429V7.8085ZM58.3623 7.73319V6.59781L58.2982 6.37189V4.40813C58.2982 4.02581 58.1818 3.73038 57.9489 3.52184C57.716 3.3133 57.3608 3.20323 56.8892 3.20323C56.5807 3.20323 56.2779 3.24958 55.981 3.34805C55.684 3.44653 55.422 3.57977 55.2066 3.75355L54.6942 2.80933C55.0028 2.58341 55.358 2.40962 55.7714 2.28797C56.1847 2.17212 56.6098 2.1084 57.0581 2.1084C57.8732 2.1084 58.502 2.30535 58.9387 2.69347C59.3754 3.08159 59.5966 3.67824 59.5966 4.48344V7.73898H58.3623V7.73319Z" fill="black"/>
</g>
<defs>
<linearGradient id="paint0_linear_2159_444" x1="105.762" y1="12.9121" x2="105.762" y2="34.9942" gradientUnits="userSpaceOnUse">
<stop stop-color="#8C7000"/>
<stop offset="0.519231" stop-color="#CE9E00"/>
<stop offset="1" stop-color="#FFCC00"/>
</linearGradient>
<linearGradient id="paint1_linear_2159_444" x1="116.489" y1="20.4253" x2="116.489" y2="24.1385" gradientUnits="userSpaceOnUse">
<stop stop-color="#8C7000"/>
<stop offset="0.519231" stop-color="#CE9E00"/>
<stop offset="1" stop-color="#FFCC00"/>
</linearGradient>
<clipPath id="clip0_2159_444">
<rect width="126" height="35" fill="white"/>
</clipPath>
</defs>
</svg>
